<?xml version="1.0" encoding="UTF-8"?>
<svg width="69px" height="89px" viewBox="0 0 69 89" version="1.1" xmlns="http://www.w3.org/2000/svg" xmlns:xlink="http://www.w3.org/1999/xlink">
    <!-- Generator: Sketch 51.3 (57544) - http://www.bohemiancoding.com/sketch -->
    <title>014-donate</title>
    <desc>Created with Sketch.</desc>
    <defs></defs>
    <g id="Main-pages" stroke="none" stroke-width="1" fill="none" fill-rule="evenodd">
        <g id="page-6" transform="translate(-147.000000, -450.000000)" fill="#FFFFFF" fill-rule="nonzero">
            <g id="014-donate" transform="translate(147.000000, 450.000000)">
                <path d="M10.9919291,8 L8.10800076,8 C7.439904,8 7,8.36104256 7,8.77155941 L7,19.2284406 C7,19.6387863 7.439904,20 8.10800076,20 L10.9919291,20 C13.240384,20 15,18.9493987 15,16.1259398 L15,11.8740602 C15,9.0507725 13.2405539,8 10.9919291,8 Z M12.4582758,16.1259398 C12.4582758,17.2421074 11.9043604,17.7674936 10.9917592,17.7674936 L9.54172419,17.7674936 L9.54172419,10.2325064 L10.9917592,10.2325064 C11.9043604,10.2325064 12.4582758,10.7577214 12.4582758,11.8740602 L12.4582758,16.1259398 Z" id="Shape"></path>
                <path d="M19.991844,8 C17.7433414,8 16,9.04189837 16,11.8425946 L16,16.1574054 C16,18.9579318 17.7435113,20 19.991844,20 C22.2401767,20 24,18.9579318 24,16.1574054 L24,11.8425946 C24,9.04223798 22.2403466,8 19.991844,8 Z M21.4582218,16.1575752 C21.4582218,17.2809781 20.9042946,17.7857962 19.9920139,17.7857962 C19.0795633,17.7857962 18.5419481,17.2809781 18.5419481,16.1575752 L18.5419481,11.8425946 C18.5419481,10.7191917 19.0795633,10.2143736 19.9920139,10.2143736 C20.9042946,10.2143736 21.4582218,10.7190219 21.4582218,11.8425946 L21.4582218,16.1575752 Z" id="Shape"></path>
                <path d="M32.7787755,8 C32.1681633,8.00017119 31.5577143,8.22990752 31.5577143,8.77155116 L31.5577143,14.3530142 C28.4042449,8.04622117 28.6932245,8.00017119 27.2210612,8.00017119 C26.610449,8.00017119 26,8.24634172 26,8.78815654 L26,19.2120574 C26,20.2626475 28.4422857,20.2626475 28.4422857,19.2120574 L28.4422857,13.6305944 L31.4169796,19.3104914 C31.714449,19.8850034 32.2155102,19.9998716 32.7789388,19.9998716 C33.389551,19.9998716 34,19.7372669 34,19.2118863 L34,8.77172234 C33.9998367,8.22990752 33.3893878,8 32.7787755,8 Z" id="Shape"></path>
                <path d="M45.978448,18.7783763 L42.7558755,8.8484719 C42.379741,7.71785518 39.6168684,7.71649709 39.2403745,8.8484719 C35.8664855,19.3007348 36.0007294,18.8445836 36.0007294,18.9574755 C36.0007294,19.8706268 38.3198962,20.462418 38.6029406,19.5271977 L39.1887975,17.4922574 L42.8248844,17.4922574 L43.4107413,19.5271977 C43.7038495,20.4946729 46.2595156,19.843295 45.978448,18.7783763 Z M39.7399703,15.5389727 L40.9979453,11.1762521 L42.2559203,15.5389727 L39.7399703,15.5389727 Z" id="Shape"></path>
                <path d="M52.2836905,8 L45.715938,8 C44.7462729,8 44.7765551,10.2982357 45.715938,10.2982357 L47.8139722,10.2982357 L47.8139722,19.2119662 C47.8141308,20.2625638 50.1858148,20.262735 50.1858148,19.2121374 L50.1858148,10.2982357 L52.2838491,10.2982357 C53.2243417,10.2982357 53.2530385,8 52.2836905,8 Z" id="Shape"></path>
                <path d="M62.2001457,17.7674936 L57.6492088,17.7674936 L57.6492088,14.9769034 L60.196416,14.9769034 C60.7568936,14.9769034 60.9945432,14.4516884 60.9945432,14.008474 C60.9945432,13.4832589 60.7058928,13.0070046 60.196416,13.0070046 L57.6492088,13.0070046 L57.6492088,10.2325064 L62.2001457,10.2325064 C63.2506208,10.2325064 63.2824963,8 62.2001457,8 L56.1547788,8 C55.5774779,8 55,8.26260753 55,8.78799378 L55,19.2120062 C55,19.7372213 55.5774779,20 56.1547788,20 L62.2001457,20 C62.7604463,20 62.9980959,19.4254818 62.9980959,18.9000956 C62.9980959,18.2927087 62.7094455,17.7674936 62.2001457,17.7674936 Z" id="Shape"></path>
                <path d="M67.6975826,15.2431403 C66.9784926,15.2431403 66.3955123,15.8266805 66.3955123,16.5468494 L66.3955123,23.352037 C66.3955123,23.9308838 65.9252046,24.4017835 65.3470854,24.4017835 L34.5088541,24.4017835 C33.6003563,23.186379 32.1840511,22.5093194 30.7252116,22.5089718 C30.725038,22.5089718 30.7248644,22.5089718 30.7246908,22.5089718 C30.7238227,22.5089718 30.7226075,22.5089718 30.7217394,22.5089718 C29.2839067,22.5100147 27.8655182,23.1703868 26.9481663,24.4017835 L3.65274102,24.4017835 C3.07462183,24.4017835 2.60431407,23.9308838 2.60431407,23.352037 L2.60431407,3.65733853 C2.60431407,3.0784917 3.07462183,2.60759198 3.65274102,2.60759198 L65.3467382,2.60759198 C65.9248573,2.60759198 66.3951651,3.0784917 66.3951651,3.65733853 L66.3951651,10.4623522 C66.3951651,11.1825211 66.9781453,11.7662351 67.6972353,11.7662351 C68.4163253,11.7662351 68.9993056,11.182695 68.9993056,10.4625261 L68.9993056,3.65733853 C68.9994792,1.6405875 67.3607804,0 65.3467382,0 L3.65274102,0 C1.63852518,0 0,1.6405875 0,3.65733853 L0,23.352037 C0,25.368788 1.63852518,27.0093755 3.65274102,27.0093755 L26.0054674,27.0093755 C25.9960925,27.1960666 25.9993911,56.9863405 25.9993911,57.1739008 L21.8263428,51.6889359 C18.0812416,46.4716661 11.0406875,51.0767142 13.3543795,56.1358007 L20.1154226,71.6276887 C20.1187211,71.6353371 20.1221933,71.6428117 20.1254919,71.6502863 C21.3997846,74.4132804 23.2082734,75.9313193 25.0643311,77.7718089 C26.0914041,78.790614 26.0695293,81.421499 26.037238,82.8799148 C26.0019952,84.4805219 25.9580721,86.4727632 27.2650034,87.8101949 C28.0356553,88.5990258 29.1370331,88.9990038 30.5382343,88.9990038 L35.8973818,88.9990038 C36.6164718,88.9990038 37.199452,88.4154636 37.199452,87.6952947 C37.199452,86.9751258 36.6164718,86.3915856 35.8973818,86.3915856 L30.5382343,86.3915856 C29.8641092,86.3915856 29.3891139,86.2554784 29.1267902,85.9869143 C28.4790537,85.3239348 28.6493644,83.4766659 28.6521422,82.2230193 C28.6524894,82.2075486 28.652663,82.1920779 28.6524894,82.1766072 C28.6333924,79.9724698 28.4802689,77.4896862 26.8969515,75.9193252 C25.0061719,74.0442439 23.6303177,72.9272259 22.4947389,70.5673387 L15.7359527,55.0808393 C15.7324806,55.0728432 15.7288348,55.0648471 15.725189,55.0570249 C14.7080117,52.8473249 17.7968695,50.5267228 19.7194196,53.2217502 C19.727232,53.2327013 19.7350444,53.2433048 19.7432041,53.2540821 L26.2655343,61.8270992 C27.0186517,62.817049 28.6035316,62.2813114 28.6035316,61.0370515 L28.6035316,27.2525607 C28.6026635,26.0893045 29.5434527,25.1174329 30.7234755,25.1167376 C31.9170399,25.1160423 32.8562665,26.0990389 32.8571346,27.2494318 C32.8593915,30.2312752 32.8585235,53.1240589 32.8585235,56.6035715 C32.8585235,57.3237404 33.4415037,57.9072806 34.1605937,57.9072806 C34.8796837,57.9072806 35.4626639,57.3237404 35.4626639,56.6035715 L35.4626639,51.9223868 C35.5308924,51.6809399 35.512837,51.8512912 35.512837,48.2363667 C35.512837,47.0618117 36.4671677,46.106106 37.6404198,46.106106 C38.8133246,46.106106 39.7678289,47.0616379 39.7678289,48.2363667 C39.7678289,48.3211947 39.7678289,47.7875431 39.7678289,56.6039192 C39.7678289,57.3240881 40.3508092,57.9076282 41.0698992,57.9076282 C41.7889891,57.9076282 42.3719694,57.3240881 42.3719694,56.6039192 C42.3719694,56.1740428 42.3719694,49.3777205 42.3719694,49.1626954 C42.3719694,47.9881405 43.3263001,47.0324348 44.4993785,47.0324348 C45.672457,47.0324348 46.6267877,47.9879666 46.6267877,49.1626954 C46.6267877,49.9617822 46.6267877,55.7881449 46.6267877,56.6039192 C46.6267877,57.3240881 47.2097679,57.9076282 47.9288579,57.9076282 C48.6479479,57.9076282 49.2309281,57.3240881 49.2309281,56.6039192 L49.2309281,49.8573116 C49.2309281,48.6827566 50.1852588,47.727051 51.3585109,47.727051 C52.5314157,47.727051 53.48592,48.6825828 53.48592,49.8557472 L53.4612675,70.43071 C53.2947761,72.6649197 52.313536,73.6812913 51.1932348,74.8417662 C48.1852789,77.9579785 48.5708653,78.9719165 48.5708653,84.3463268 C48.5708653,85.6369988 48.1326753,86.252871 47.1087273,86.3917594 L41.9742303,86.3917594 C41.2551403,86.3917594 40.6721601,86.9752996 40.6721601,87.6954685 C40.6721601,88.4156374 41.2551403,88.9991776 41.9742303,88.9991776 C47.5262578,88.9991776 47.2224414,89.0038709 47.3347667,88.9908338 C49.7396036,88.718967 51.175353,86.9826004 51.175353,84.3456315 C51.1727489,79.0510082 50.8533076,78.9460162 53.0663062,76.6540956 C54.4154246,75.2565195 56.0944007,73.5168501 56.0909285,69.7232305 C56.0749565,53.7408002 56.0426651,89.7869655 56.0909285,49.8571378 C56.0909285,45.8086865 51.31181,43.6191506 48.2559379,46.2835843 C46.6116837,44.1382006 43.5535547,43.8127949 41.5018393,45.4999682 C40.1087977,43.5350179 37.5204557,42.958257 35.4633584,44.030775 C35.4637056,26.094867 35.4645736,27.1847678 35.4557195,27.0097231 L65.347259,27.0097231 C67.3614748,27.0097231 69,25.3691356 69,23.3523846 L69,16.5468494 C68.9998264,15.8266805 68.4168461,15.2431403 67.6975826,15.2431403 Z" id="Shape"></path>
            </g>
        </g>
    </g>
</svg>