<?xml version="1.0" encoding="UTF-8"?>
<svg width="64px" height="89px" viewBox="0 0 64 89" version="1.1" xmlns="http://www.w3.org/2000/svg" xmlns:xlink="http://www.w3.org/1999/xlink">
    <!-- Generator: Sketch 51.3 (57544) - http://www.bohemiancoding.com/sketch -->
    <title>026-transfusion</title>
    <desc>Created with Sketch.</desc>
    <defs></defs>
    <g id="Main-pages" stroke="none" stroke-width="1" fill="none" fill-rule="evenodd">
        <g id="page-6" transform="translate(-800.000000, -576.000000)" fill="#FFFFFF" fill-rule="nonzero">
            <g id="026-transfusion" transform="translate(800.000000, 576.000000)">
                <path d="M30.4989316,37.9630237 L28.4889338,37.9630237 L28.4889338,35.9454985 C28.4889338,34.0483138 26.9509416,32.5043478 25.0603273,32.5043478 C23.1697131,32.5043478 21.6315481,34.047967 21.6315481,35.9454985 L21.6315481,37.9630237 L19.6215503,37.9630237 C17.730936,37.9630237 16.1927711,39.506643 16.1927711,41.4041744 C16.1927711,43.3015325 17.7307632,44.8454985 19.6215503,44.8454985 L21.6315481,44.8454985 L21.6315481,46.8630237 C21.6315481,48.7603818 23.1695403,50.3043478 25.0603273,50.3043478 C26.9511144,50.3043478 28.4889338,48.7607286 28.4889338,46.8630237 L28.4889338,44.8454985 L30.4989316,44.8454985 C32.3895459,44.8454985 33.9277108,43.3018793 33.9277108,41.4041744 C33.9277108,39.5069898 32.3897187,37.9630237 30.4989316,37.9630237 Z M30.4989316,42.2443042 L27.1929914,42.2443042 C26.477381,42.2443042 25.8972218,42.8264127 25.8972218,43.5448146 L25.8972218,46.8628503 C25.8972218,47.3261789 25.5217941,47.7029801 25.0603273,47.7029801 C24.5988606,47.7029801 24.2232602,47.3261789 24.2232602,46.8628503 L24.2232602,43.5448146 C24.2232602,42.8264127 23.6431009,42.2443042 22.9274905,42.2443042 L19.6215503,42.2443042 C19.1600835,42.2443042 18.7844831,41.8673296 18.7844831,41.4041744 C18.7844831,40.9410193 19.1599108,40.5642181 19.6215503,40.5642181 L22.9274905,40.5642181 C23.6432737,40.5642181 24.2232602,39.9821096 24.2232602,39.2637076 L24.2232602,35.9454985 C24.2232602,35.4823434 24.5986878,35.1055422 25.0603273,35.1055422 C25.5217941,35.1055422 25.8972218,35.4823434 25.8972218,35.9454985 L25.8972218,39.2637076 C25.8972218,39.9821096 26.477381,40.5642181 27.1929914,40.5642181 L30.4989316,40.5642181 C30.9603984,40.5642181 31.3359988,40.9410193 31.3359988,41.4041744 C31.3359988,41.8671561 30.9605712,42.2443042 30.4989316,42.2443042 Z" id="Shape"></path>
                <path d="M62.7469104,10.9546892 C62.0601159,10.7347967 61.3240159,11.1121774 61.1034472,11.797929 C59.404929,17.0805629 53.9889749,21.2915471 49.3924003,23.5248897 C38.6510891,18.3576775 34.4458235,8.46321198 38.675829,4.23658332 C41.24582,1.66862177 45.5528328,2.24885975 47.3503107,5.40453389 C48.0707305,6.66791604 50.3245034,7.11430643 51.4191582,5.35968625 C54.209892,0.884483512 60.1492176,2.28223474 61.4437084,6.494088 C61.6552174,7.18244702 62.3860907,7.56938822 63.0760211,7.35836099 C63.7659516,7.14715993 64.1537761,6.41812515 63.9422671,5.72959231 C62.0203927,-0.523175909 53.4211761,-2.3299445 49.3756748,3.71040586 C45.5861098,-2.13890749 36.4879132,-0.776791011 34.7115164,6.07603158 L10.3167253,6.07603158 C4.62810927,6.07603158 0,10.6935995 0,16.3694325 C0,18.0915468 0,60.2325033 0,62.6516681 C0,68.3273272 4.62810927,72.9450689 10.3167253,72.9450689 L16.2912443,72.9450689 L16.2912443,75.107142 C16.2912443,77.246096 18.0352352,78.9859408 20.1788979,78.9859408 L24.0341457,78.9859408 L24.0341457,87.6962897 C24.0341457,88.4164593 24.6191928,89 25.3408322,89 C26.0624716,89 26.6475186,88.4164593 26.6475186,87.6962897 L26.6475186,78.9857669 L30.5025922,78.9857669 C32.6464291,78.9857669 34.3902458,77.2457483 34.3902458,75.1069682 L34.3902458,72.9448951 L40.3645906,72.9448951 C46.0532066,72.9448951 50.6813159,68.3273272 50.6813159,62.6514942 C50.6813159,61.1032079 50.6813159,27.3395459 50.6813159,25.7973435 C55.7366245,23.3053449 61.6606183,18.5994723 63.5915525,12.594409 C63.8122954,11.9086574 63.4340532,11.1745817 62.7469104,10.9546892 Z M31.7772213,75.1067944 C31.7770471,75.807669 31.2054153,76.3779988 30.5029406,76.3779988 L20.1792464,76.3779988 C19.4765975,76.3779988 18.9051399,75.807669 18.9051399,75.1067944 L18.9051399,72.9447213 L31.7773955,72.9447213 L31.7773955,75.1067944 L31.7772213,75.1067944 Z M48.0682914,62.6514942 C48.0682914,66.8894217 44.6125412,70.3373008 40.364939,70.3373008 C39.8908732,70.3373008 10.5331126,70.3373008 10.3167253,70.3373008 C6.06912312,70.3373008 2.61354718,66.8894217 2.61354718,62.6514942 L2.61354718,60.101437 L48.0682914,60.101437 L48.0682914,62.6514942 Z M48.0684656,57.4938426 L2.61354718,57.4938426 L2.61354718,52.2152067 L5.60847258,52.2152067 C6.33011196,52.2152067 6.91515906,51.631666 6.91515906,50.9114965 C6.91515906,50.1913269 6.33011196,49.6077862 5.60847258,49.6077862 L2.61354718,49.6077862 L2.61354718,42.6122508 L5.60847258,42.6122508 C6.33011196,42.6122508 6.91515906,42.0287101 6.91515906,41.3085405 C6.91515906,40.588371 6.33011196,40.0048303 5.60847258,40.0048303 L2.61354718,40.0048303 L2.61354718,33.0094687 L5.60847258,33.0094687 C6.33011196,33.0094687 6.91515906,32.425928 6.91515906,31.7057584 C6.91515906,30.9855889 6.33011196,30.4020482 5.60847258,30.4020482 L2.61354718,30.4020482 L2.61354718,24.6942308 L22.2918971,24.6942308 C23.0135364,24.6942308 23.5985835,24.1106901 23.5985835,23.3905206 C23.5985835,22.670351 23.0135364,22.0868103 22.2918971,22.0868103 L2.61354718,22.0868103 L2.61354718,16.3696063 C2.61354718,12.1316788 6.06912312,8.68379975 10.3167253,8.68379975 L34.4439071,8.68379975 C34.5827643,13.8996837 38.038166,18.7553961 42.188028,22.0868103 L28.3901157,22.0868103 C27.6684763,22.0868103 27.0834293,22.670351 27.0834293,23.3905206 C27.0834293,24.1106901 27.6684763,24.6942308 28.3901157,24.6942308 L46.0216719,24.6942308 C46.712125,25.0919494 47.4743588,25.4941875 48.0684656,25.7843064 L48.0684656,57.4938426 Z" id="Shape"></path>
            </g>
        </g>
    </g>
</svg>