<?xml version="1.0" encoding="UTF-8"?>
<svg width="89px" height="66px" viewBox="0 0 89 66" version="1.1" xmlns="http://www.w3.org/2000/svg" xmlns:xlink="http://www.w3.org/1999/xlink">
    <!-- Generator: Sketch 51.3 (57544) - http://www.bohemiancoding.com/sketch -->
    <title>027-solidarity-1</title>
    <desc>Created with Sketch.</desc>
    <defs></defs>
    <g id="Main-pages" stroke="none" stroke-width="1" fill="none" fill-rule="evenodd">
        <g id="page-6" transform="translate(-141.000000, -592.000000)" fill="#FFFFFF" fill-rule="nonzero">
            <g id="027-solidarity-1" transform="translate(141.000000, 592.000000)">
                <path d="M88.7917719,60.407086 L78.341598,44.1489722 L88.7912504,27.9041184 C89.0945797,27.4325173 89.0645076,26.8190694 88.7163307,26.3795713 L83.5825033,19.9006823 C83.3450546,19.6009372 82.957245,19.4067485 82.5621347,19.4067485 L68.5088601,19.4067485 L75.9641565,8.58993147 C77.6791406,6.10368789 77.0630953,2.69500433 74.5830954,0.974174829 C72.1065721,-0.7464802 68.7105003,-0.128496007 66.9955162,2.36123704 L49.9781316,27.0516422 C49.4589083,27.7531991 47.5214247,29.9569705 43.7184222,29.9569705 L33.2133188,29.9569705 C29.4130975,29.9569705 27.473528,27.7530246 26.9534355,27.0511188 L9.936051,2.36123704 C8.22193602,-0.126751274 4.82812394,-0.747527039 2.34847175,0.973825882 C-0.123879679,2.69081697 -0.74374927,6.10682841 0.966541504,8.58940805 L21.8427272,38.8777869 C22.0965157,39.3108295 25.1341548,44.6244118 25.1341548,50.5840685 L25.1341548,63.0238356 C25.1341548,64.6649308 26.4644582,66 28.0994816,66 L35.4237119,66 C36.14388,66 36.7275935,65.4142934 36.7275935,64.6912763 C36.7275935,63.9682592 36.1440539,63.3825526 35.4237119,63.3825526 L28.0994816,63.3825526 C27.9021871,63.3825526 27.7417442,63.2215138 27.7417442,63.0236611 L27.7417442,50.583894 C27.7417442,44.9159566 25.1298091,39.0407449 24.0124446,37.4252972 L3.11105388,7.10062795 C2.21862245,5.80516419 2.54211581,4.02239669 3.8320912,3.12647664 C5.12206658,2.23055658 6.89458768,2.54897023 7.79119097,3.85019161 L24.8205696,28.5575207 C24.8280442,28.5685125 24.8356926,28.5791554 24.8435149,28.5897982 C25.5301343,29.5244513 28.163624,32.5744179 33.2129711,32.5744179 L43.7180746,32.5744179 C47.562448,32.5744179 50.6927373,30.6423013 52.1104761,28.5575207 L69.1396809,3.85001714 C70.025333,2.56380046 71.7945514,2.22043714 73.0991283,3.12665111 C74.3889299,4.02152432 74.7171166,5.7992321 73.8194703,7.10045348 L65.3377213,19.4067485 L61.7280153,19.4067485 C61.3469849,19.4067485 60.9586538,19.5838389 60.7076466,19.9008567 L55.5738192,26.3795713 C55.2256423,26.8190694 55.1955702,27.4325173 55.4988995,27.9041184 L57.4214339,30.8930194 L52.9194702,37.4252972 C52.9052163,37.4458851 52.8914839,37.4671708 52.8784469,37.488631 C52.7279121,37.7365575 49.1899968,43.6424764 49.1899968,50.583894 L49.1899968,63.0360487 C49.1899968,63.2270969 49.0351163,63.3823781 48.8449488,63.3823781 L41.508203,63.3823781 C40.7880348,63.3823781 40.2043214,63.9680847 40.2043214,64.6911018 C40.2043214,65.4139444 40.787861,65.9998255 41.508203,65.9998255 L48.8449488,65.9998255 C50.4731929,65.9998255 51.7975862,64.6703395 51.7975862,63.0362232 L51.7975862,50.5840685 C51.7975862,44.6205734 54.8390495,39.3041995 55.0891876,38.8779614 L58.9525083,33.2724853 L65.9485519,44.1487978 L55.4987257,60.407086 C55.2989976,60.7179973 55.2395486,61.0993958 55.3355015,61.456717 C55.4314543,61.8140382 55.6734225,62.1139577 56.0019569,62.2819754 L62.9832251,65.856583 C63.5806709,66.1622601 64.309009,65.9635351 64.6710921,65.4008589 L72.1451619,53.7816395 L79.6194055,65.4008589 C79.9814886,65.9635351 80.7098266,66.1624346 81.3072725,65.856583 L88.2885407,62.2819754 C88.9763769,61.9300629 89.2098275,61.0578712 88.7917719,60.407086 Z M80.1690487,22.0240215 C79.6870244,22.7739075 78.2600728,24.9939049 77.6871367,25.8856376 L66.603187,25.8856376 L64.1212751,22.0240215 C66.6509896,22.0240215 78.6334547,22.0240215 80.1690487,22.0240215 Z M76.0048322,28.5029106 L72.144988,34.5081048 L68.2851439,28.5029106 L76.0048322,28.5029106 Z M58.1970531,27.2735722 L61.6174608,22.9572788 C62.1905708,23.8488371 69.5912852,35.3628491 70.593402,36.9221164 L67.4997903,41.7353095 L58.1970531,27.2735722 Z M63.1191584,62.9884175 L58.4722224,60.6089516 C60.1562652,57.9890615 81.74358,24.402964 82.6728629,22.9572788 L86.0932706,27.2735722 C85.0534333,28.8897177 64.6078188,60.6742045 63.1191584,62.9884175 Z M81.1709915,62.9884175 L73.6969218,51.3691981 L76.7891428,46.5619371 L85.8179275,60.6089516 L81.1709915,62.9884175 Z" id="Shape"></path>
                <path d="M49.0507934,14.7855169 C48.3492322,14.5827097 47.6139777,14.9760274 47.4075842,15.6639437 C46.2157945,19.6312394 42.4393242,22.4021288 38.2232534,22.4021288 C32.9425807,22.4021288 28.6464223,18.1843983 28.6464223,13.0002598 C28.6464223,7.81612123 32.9425807,3.59821757 38.2232534,3.59821757 C42.4389714,3.59821757 46.2157945,6.36910698 47.4075842,10.3364027 C47.6141541,11.0244922 48.3494086,11.417983 49.0509698,11.2148295 C49.7518254,11.0118492 50.1524403,10.2894678 49.9455177,9.60137831 C48.4242041,4.53708822 43.6037711,1 38.223077,1 C31.4833616,1 26,6.38330868 26,13.0000866 C26,19.6168645 31.4833616,25 38.223077,25 C43.6039475,25 48.4243806,21.4629118 49.9455177,16.3986217 C50.1524403,15.7108786 49.751649,14.988324 49.0507934,14.7855169 Z" id="Shape"></path>
            </g>
        </g>
    </g>
</svg>