<?xml version="1.0" encoding="UTF-8"?>
<svg width="93px" height="89px" viewBox="0 0 93 89" version="1.1" xmlns="http://www.w3.org/2000/svg" xmlns:xlink="http://www.w3.org/1999/xlink">
    <!-- Generator: Sketch 51.3 (57544) - http://www.bohemiancoding.com/sketch -->
    <title>023-ecology</title>
    <desc>Created with Sketch.</desc>
    <defs></defs>
    <g id="Main-pages" stroke="none" stroke-width="1" fill="none" fill-rule="evenodd">
        <g id="05-solution" transform="translate(-783.000000, -450.000000)" fill="#FFFFFF" fill-rule="nonzero">
            <g id="023-ecology" transform="translate(783.000000, 450.000000)">
                <path d="M89.2021102,23.4839883 C89.1879405,23.4801805 89.1737709,23.476554 89.1596012,23.4731088 C87.5856774,23.0957718 86.144004,23.3893367 84.9839073,24.2528056 C81.6336878,21.0598565 75.9707232,23.6364825 76.3107953,28.3467579 L77.0957589,39.2157316 C77.1277315,39.6596148 77.2178361,40.0927999 77.3620761,40.5105723 L77.1891335,40.9250809 C75.9104112,40.1540877 74.1448335,39.8516378 72.1823337,40.945208 C63.572077,45.7403434 62.3224207,46.2333657 60.6692921,48.2005589 C60.6636606,48.2072679 60.6580291,48.2141582 60.6525792,48.2208673 C56.2447207,53.6769318 55.2750063,54.9677833 54.2219089,58.8697126 C53.4552932,61.7101662 52.9141207,64.6782726 52.6080194,67.7107493 L51.8701064,67.6570771 C50.2780164,67.5439304 48.9082812,68.7312455 48.7925622,70.3100409 L47.7103988,85.0493933 C47.58814,86.7206644 48.916456,88.1475096 50.5955624,88.1475096 L70.565356,88.1475096 C72.0838727,88.1475096 73.3604149,86.9634584 73.4712291,85.4517531 L73.7455394,81.7135602 C73.8005831,80.9646886 73.2368844,80.3131884 72.4866184,80.2586097 C71.735444,80.2049375 71.0834574,80.7665005 71.0289586,81.5151908 L70.7546483,85.2533838 C70.7473818,85.3518432 70.6641803,85.4289062 70.5651743,85.4289062 L50.5950174,85.4289062 C50.5461502,85.4289062 50.5045495,85.4107737 50.4713052,85.3750527 C50.4378794,85.3395131 50.4228014,85.2965391 50.4264346,85.2481254 L51.508598,70.5089542 C51.5116863,70.4674308 51.5289442,70.4326165 51.5605535,70.4055991 C51.5921628,70.3785817 51.6306752,70.3677022 51.670641,70.3691528 C53.7454082,70.5209217 68.1792192,71.5764136 71.5877524,71.8255539 C71.6711355,71.8317189 71.7339907,71.9044302 71.7278142,71.9876583 L71.4941962,75.1713599 C71.4391525,75.9202315 72.0028512,76.5717316 72.7531173,76.6264917 C73.4999317,76.6787133 74.1562783,76.1187822 74.2109587,75.3697293 L74.444395,72.186209 C74.560659,70.6079576 73.3684081,69.2297075 71.7868545,69.1140222 L71.0988987,69.0636139 C71.1777402,67.9881763 71.1686571,66.47085 72.4208566,64.8314921 C73.9844256,62.7852412 74.2331215,62.8933108 82.0994704,58.5105081 C82.118545,58.4999912 82.1372562,58.4889304 82.1559674,58.4773256 C83.3336853,57.7451359 86.1567203,55.6270804 86.9932761,51.7508993 C87.0090807,51.6928753 92.8384482,30.2999891 92.8508012,30.2410585 C93.278798,28.2192865 92.991408,24.5208037 89.2021102,23.4839883 Z M83.2497573,26.3721304 C82.958734,26.9400398 83.5315158,25.7119266 79.5425709,35.2802572 L79.0275578,28.1514711 C78.8620633,25.8578931 81.7254274,24.6495444 83.2497573,26.3721304 Z M90.1932607,29.6444998 L84.3557185,51.0720191 C84.3529935,51.0816293 84.3506319,51.0910582 84.3482703,51.1006684 C84.3442737,51.117169 84.3402772,51.1338508 84.3368256,51.1503514 C83.7540523,53.9024999 81.8473229,55.4604429 80.7431783,56.1529225 C72.8690179,60.5371758 72.2054049,60.6309208 70.2554398,63.1828866 C68.5223797,65.4510791 68.4771457,67.5814646 68.3826812,68.8650632 C66.2730348,68.7107558 56.5722581,68.001413 55.3253268,67.9102066 C55.6176218,65.0498072 56.1300916,62.2528715 56.8522,59.5774234 C57.7396212,56.2887348 58.3541854,55.3977045 62.7649505,49.9385575 C64.048396,48.4145222 65.149089,47.9771667 73.5101048,43.3196568 C75.2736842,42.3370574 76.2822743,43.5807645 76.5416884,43.9736955 C76.54405,43.9775033 76.5469566,43.9805858 76.5494999,43.9842123 C76.5544047,43.991828 76.5584013,43.9996249 76.5636695,44.0070592 C76.8710424,44.4788665 77.2363657,45.3844027 76.2257773,46.1490496 C74.0225747,47.8157876 68.7954184,51.8027582 68.7429179,51.8430123 C68.1452483,52.298863 68.030801,53.1519963 68.4878638,53.7485551 C68.9449266,54.3454764 69.7998302,54.4589858 70.3969548,54.0031351 C70.4494553,53.9630624 75.6727967,49.9793556 77.8712761,48.3157001 C79.9038976,46.7778842 79.8379541,44.6202999 79.2019538,43.1756848 C85.5436094,27.9639812 85.3210729,28.4731413 85.3210729,28.4731413 C85.8489841,26.8395858 86.8079803,25.7162784 88.5034363,26.1117479 C90.6443287,26.7139277 90.3058915,29.0831181 90.1932607,29.6444998 Z" id="Shape"></path>
                <path d="M67.2481426,10.8412454 L61.5396842,10.8412454 C55.9944181,10.8412454 51.1273631,13.7860916 48.4334186,18.1871705 C46.2361382,7.81228137 36.9690707,0 25.902345,0 L18.588678,0 C17.1802815,0 16.0344828,1.14056486 16.0344828,2.54252801 L16.0344828,10.3350915 C16.0344828,22.973744 26.3637539,33.2556513 39.0602215,33.2556513 C40.7045018,33.2556513 52.7449293,33.2556513 54.4131977,33.2556513 C62.8699375,33.2556513 69.75,26.4070161 69.75,17.9890867 L69.75,13.3316746 C69.75,11.9582934 68.6276443,10.8412454 67.2481426,10.8412454 Z M46.2032454,28.5810539 L24.5899011,6.65995811 C24.0627065,6.12540313 23.2000409,6.1178054 22.6632147,6.64204916 C22.1262067,7.16665473 22.1182106,8.02519888 22.6452235,8.55993476 L44.3194468,30.5430788 L39.060585,30.5430788 C27.8666493,30.5430788 18.7596846,21.4777137 18.7596846,10.3349106 L18.7596846,2.71257257 L25.902345,2.71257257 C37.0962807,2.71257257 46.2032454,11.7779377 46.2032454,22.9207408 C46.2032454,25.0651113 46.2032454,26.4388543 46.2032454,28.5810539 Z M67.0251616,17.9889058 C67.0251616,24.9111667 61.3674055,30.5428979 54.4133794,30.5428979 L50.9668968,30.5428979 L63.5608695,18.5789966 C64.1053284,18.0619887 64.1253185,17.2034446 63.6059382,16.6614728 C63.0867397,16.1198628 62.2242558,16.0996021 61.6796152,16.61661 L48.9282655,28.7301143 L48.9282655,26.1072674 C48.9282655,19.1851874 54.5858399,13.5534562 61.5396842,13.5534562 L67.0251616,13.5534562 L67.0251616,17.9889058 Z" id="Shape"></path>
                <path d="M45.2895636,84.6484317 L44.2084752,69.9104632 C44.1521969,69.1458787 43.8016375,68.4489229 43.2207,67.9477819 C42.2102319,67.0771311 41.2161026,67.2517326 40.3953469,67.3117463 C40.0896285,64.2793357 39.5486305,61.3114716 38.7823376,58.471431 C37.7299331,54.5696388 36.7606752,53.2787112 32.3555352,47.8232732 C32.3500889,47.8165647 32.3444611,47.8098563 32.3390148,47.8031478 C30.683343,45.8317637 29.4272473,45.3380564 20.8337296,40.5482076 C18.8719764,39.4545454 17.1082865,39.7571518 15.830224,40.5280821 L15.6573951,40.1136074 C15.9494978,39.2659829 15.8472891,39.8733716 16.7079842,27.9506042 C17.044928,23.2800573 11.4196378,20.635469 8.04057861,23.8573485 C4.80112599,21.444837 -1.09974645,23.7975162 0.178316003,29.8447502 C0.190660925,29.903676 6.01619304,51.2948167 6.03198727,51.3528359 C6.86781107,55.2287008 9.68917025,57.3465834 10.8661133,58.0787134 C11.0124369,58.1691871 14.0986673,59.8700567 14.2493479,59.9530967 C18.9175436,62.5249797 19.2986023,62.7351181 20.5946375,64.4323614 C21.8392961,66.0623387 21.8351206,67.563042 21.9157257,68.6641379 L21.2280409,68.7145421 C19.6477094,68.8303992 18.4566061,70.2083556 18.5724305,71.7862969 L19.5453192,85.0513026 C19.6560604,86.5628845 20.9317628,87.7468391 22.4492804,87.7468391 L28.7549937,87.7468391 C29.5067631,87.7468391 30.1160213,87.1383626 30.1160213,86.3875577 C30.1160213,85.6367527 29.5067631,85.0282762 28.7549937,85.0282762 L22.4492804,85.0282762 C22.3503395,85.0282762 22.2671928,84.9512195 22.2599311,84.8527681 C21.2294933,70.8041404 21.2064373,71.4425331 21.4268305,71.4260339 C42.4464192,69.888162 41.4789768,69.9282316 41.4929556,70.1095416 L42.5740439,84.8473288 C42.5778563,84.8961012 42.5626067,84.9388904 42.5293844,84.9744271 C42.496162,85.0101452 42.4545887,85.0282762 42.4057536,85.0282762 L35.1062742,85.0282762 C34.3545048,85.0282762 33.7452466,85.6367527 33.7452466,86.3875577 C33.7452466,87.1383626 34.3545048,87.7468391 35.1062742,87.7468391 L42.4057536,87.7468391 C44.0842998,87.7464765 45.4121051,86.3201103 45.2895636,84.6484317 Z M13.9928277,27.7551519 L13.4781534,34.8833564 C9.39979076,25.0951522 10.0756752,26.565758 9.77340618,25.9759564 C11.3005456,24.2500661 14.1578503,25.4679257 13.9928277,27.7551519 Z M24.6310637,68.4657847 C24.5490063,67.3492774 24.5430154,65.1198891 22.7595373,62.7840718 C20.8106736,60.2317702 20.1478603,60.1380329 12.2785175,55.7541373 C11.1750994,55.0618955 9.26962446,53.5038983 8.68723464,50.7519744 C8.68360378,50.7352939 8.67979138,50.7186134 8.67579743,50.7022955 C8.67343737,50.692686 8.67107731,50.6832579 8.66835417,50.6736485 L2.83447108,29.2480589 C2.72191445,28.686723 2.38369991,26.3177259 4.52390989,25.7159578 C5.62678338,25.4590415 6.42629859,25.8158597 7.05480032,26.7229538 C7.37812834,27.1894646 6.83368099,26.0129437 13.8192726,42.7786838 C13.1836907,44.2229996 13.1177906,46.3805892 15.1490748,47.9180984 C17.3462893,49.5816181 22.5660125,53.5651811 22.6184785,53.6052506 C22.8651954,53.7936318 23.1556641,53.8846494 23.4437728,53.8844681 C23.8533337,53.8844681 24.258356,53.7004384 24.5263135,53.35051 C24.982894,52.7539999 24.8685219,51.9009362 24.2714271,51.4451227 C24.2189612,51.4048719 18.9950625,47.4182266 16.793491,45.7514433 C15.5061698,44.7770831 16.3312826,43.394594 17.2947311,42.8205664 C17.9642615,42.4222282 18.6671959,42.4543201 19.5071952,42.9224626 C27.8628916,47.5795925 28.9626788,48.0169123 30.2458245,49.5410046 C34.6525983,54.998981 35.2673028,55.8906638 36.1541402,59.1790841 C36.875955,61.8543138 37.3879061,64.6506587 37.6800088,67.511006 L24.6310637,68.4657847 Z" id="Shape"></path>
            </g>
        </g>
    </g>
</svg>