<?xml version="1.0" encoding="UTF-8"?>
<svg width="26px" height="19px" viewBox="0 0 26 19" version="1.1" xmlns="http://www.w3.org/2000/svg" xmlns:xlink="http://www.w3.org/1999/xlink">
    <!-- Generator: Sketch 51.3 (57544) - http://www.bohemiancoding.com/sketch -->
    <title>home</title>
    <desc>Created with Sketch.</desc>
    <defs></defs>
    <g id="Main-pages" stroke="none" stroke-width="1" fill="none" fill-rule="evenodd">
        <g id="01-home" transform="translate(-53.000000, -126.000000)" fill="#727982" fill-rule="nonzero">
            <g id="side-nav/closed" transform="translate(36.000000, 36.000000)">
                <g id="home" transform="translate(17.000000, 90.738540)">
                    <path d="M13.0083853,3.64453188 L3.76977489,10.2263214 C3.76977489,10.2356103 3.76707359,10.2492763 3.761671,10.2679028 C3.75638095,10.2863835 3.7535671,10.2998063 3.7535671,10.3093384 L3.7535671,16.9740963 C3.7535671,17.214734 3.85537229,17.4232736 4.05892641,17.5988885 C4.26242424,17.7746007 4.5034026,17.863016 4.78191775,17.863016 L10.9515714,17.863016 L10.9515714,12.5310541 L15.0652554,12.5310541 L15.0652554,17.8632106 L21.2348528,17.8632106 C21.5133117,17.8632106 21.7546277,17.7749897 21.9578442,17.5988885 C22.1613983,17.4234682 22.2635411,17.2147826 22.2635411,16.9740963 L22.2635411,10.3093384 C22.2635411,10.2723771 22.2576883,10.2444616 22.2473333,10.2263214 L13.0083853,3.64453188 Z" id="Shape"></path>
                    <path d="M25.7817576,8.72666451 L22.2632035,6.19958027 L22.2632035,0.534431482 C22.2632035,0.404920968 22.2150303,0.298414012 22.1183463,0.215056512 C22.0224502,0.13179628 21.8992035,0.0901661632 21.749,0.0901661632 L18.6641169,0.0901661632 C18.5140823,0.0901661632 18.3908918,0.13179628 18.2943766,0.215056512 C18.1980866,0.298414012 18.1499697,0.404969601 18.1499697,0.534431482 L18.1499697,3.24199394 L14.2295974,0.4093466 C13.8872078,0.168660331 13.4800996,0.0483415136 13.0087229,0.0483415136 C12.5374026,0.0483415136 12.1303506,0.168660331 11.7876234,0.4093466 L0.234787879,8.72666451 C0.127692641,8.80058714 0.068995671,8.9000909 0.0580779221,9.02507852 C0.0472164502,9.14996887 0.0846406926,9.25905339 0.170463203,9.35155395 L1.16662338,10.3790786 C1.25244589,10.4623388 1.36477489,10.5132579 1.50406061,10.5318845 C1.63265368,10.5412221 1.76124675,10.508735 1.88983983,10.4347151 L13.0083853,2.42276578 L24.1270433,10.4346665 C24.2129221,10.4992515 24.3251948,10.5314954 24.4644805,10.5314954 L24.5127662,10.5314954 C24.6518268,10.5132093 24.7639307,10.4619498 24.8502035,10.3788841 L25.8464762,9.35150532 C25.9321299,9.25881022 25.9696667,9.14992023 25.9585238,9.02488398 C25.9475498,8.9002368 25.8886277,8.80073304 25.7817576,8.72666451 Z" id="Shape"></path>
                </g>
            </g>
        </g>
    </g>
</svg>