<?xml version="1.0" encoding="UTF-8"?>
<svg width="24px" height="26px" viewBox="0 0 24 26" version="1.1" xmlns="http://www.w3.org/2000/svg" xmlns:xlink="http://www.w3.org/1999/xlink">
    <!-- Generator: Sketch 51.3 (57544) - http://www.bohemiancoding.com/sketch -->
    <title>business-male-team</title>
    <desc>Created with Sketch.</desc>
    <defs></defs>
    <g id="Symbols" stroke="none" stroke-width="1" fill="none" fill-rule="evenodd">
        <g id="side-nav/open" transform="translate(-53.000000, -547.000000)" fill="#727982" fill-rule="nonzero">
            <g id="business-male-team" transform="translate(53.000000, 547.000000)">
                <path d="M4.627375,6.88525 C5.713875,6.88525 6.595375,5.624875 6.595375,4.5375 C6.595375,3.449375 5.714,2.56875 4.627375,2.56875 C3.540125,2.56875 2.658625,3.450125 2.658625,4.5375 C2.658625,5.624125 3.54,6.88525 4.627375,6.88525 Z" id="Shape"></path>
                <path d="M19.43575,6.88525 C20.522625,6.88525 21.404,5.624875 21.404,4.5375 C21.404,3.449375 20.522625,2.56875 19.43575,2.56875 C18.348875,2.56875 17.467375,3.450125 17.467375,4.5375 C17.467375,5.624125 18.348875,6.88525 19.43575,6.88525 Z" id="Shape"></path>
                <path d="M5.986,15.465 C5.69375,15.0995 5.561375,14.641375 5.61275,14.177125 L6.381,7.258625 C5.83,7.139875 5.209625,7.045125 4.627375,7.045125 C3.239375,7.045125 1.6235,7.583625 1.305375,7.694375 C1.292375,7.698125 1.280625,7.70275 1.268125,7.707625 C1.26125,7.710625 1.251,7.71375 1.24875,7.7145 C1.233125,7.7205 1.222875,7.732375 1.208,7.739625 C1.133375,7.772375 1.06225,7.810375 1.00175,7.86475 C0.972875,7.889875 0.954125,7.921125 0.92975,7.949625 C0.890875,7.99575 0.85175,8.0395 0.82475,8.094625 C0.799625,8.143 0.7905,8.19625 0.776375,8.248375 C0.766125,8.286375 0.745125,8.319125 0.740625,8.360625 L0.1175,13.9655 C0.07,14.3925 0.377875,14.777625 0.805125,14.825625 C0.834375,14.828625 0.863375,14.830125 0.89225,14.830125 C1.2835,14.830125 1.621125,14.53625 1.664875,14.1375 L2.231875,9.03175 C2.2985,9.012375 2.37075,8.99025 2.448,8.9685 L2.448,14.282125 L1.828375,21.98725 C1.786875,22.500875 2.1705,22.951625 2.684625,22.992625 C2.7105,22.995 2.735625,22.99575 2.760375,22.99575 C3.242875,22.99575 3.652125,22.62575 3.690875,22.137125 L4.251375,15.172625 C4.366625,15.222875 4.49375,15.253375 4.62775,15.253375 C4.7625,15.253375 4.889625,15.2245 5.004875,15.172625 L5.565375,22.137125 C5.60425,22.62575 6.013375,22.99575 6.495125,22.99575 C6.52025,22.99575 6.54575,22.994875 6.570875,22.992625 C7.085,22.951625 7.468625,22.500875 7.42725,21.98725 L6.951125,16.06925 C6.575875,15.981 6.2345,15.777 5.986,15.465 Z" id="Shape"></path>
                <path d="M23.32375,8.36 C23.319125,8.320875 23.298625,8.288875 23.2895,8.252375 C23.274375,8.197875 23.264375,8.142375 23.23775,8.09175 C23.214875,8.0465 23.18225,8.01075 23.151,7.972625 C23.119875,7.932625 23.09325,7.89225 23.055125,7.859625 C23.01025,7.821125 22.959125,7.798 22.908125,7.770625 C22.875375,7.7535 22.85025,7.726375 22.815375,7.713875 C22.739875,7.68725 20.94975,7.04525 19.435875,7.04525 C18.852,7.04525 18.23325,7.141875 17.68225,7.26025 L18.450875,14.17725 C18.501875,14.6415 18.3695,15.1005 18.07725,15.465125 C17.830625,15.774125 17.491875,15.97875 17.112875,16.067875 L16.636375,21.986625 C16.59525,22.499625 16.97875,22.95025 17.492625,22.992 C17.5185,22.994375 17.543625,22.995 17.56875,22.995 C18.05125,22.995 18.46,22.624375 18.49875,22.13575 L19.05975,15.172 C19.174625,15.223 19.301875,15.253375 19.43575,15.253375 C19.5705,15.253375 19.697625,15.223 19.813375,15.172 L20.3735,22.13575 C20.412375,22.624375 20.82175,22.995 21.3035,22.995 C21.328625,22.995 21.35375,22.99425 21.379,22.992 C21.8935,22.95025 22.277125,22.499625 22.23525,21.986625 L21.61575,14.280875 L21.61575,8.96775 C21.693375,8.9895 21.765625,9.0115 21.831875,9.030875 L22.399625,14.136625 C22.443875,14.53475 22.78025,14.83 23.17225,14.83 C23.201125,14.83 23.230125,14.827 23.259,14.824 C23.686,14.77675 23.99425,14.391625 23.94625,13.964625 L23.32375,8.36 Z" id="Shape"></path>
                <path d="M12.03175,5.40225 C13.39075,5.40225 14.494375,3.824375 14.494375,2.463375 C14.494375,1.102875 13.39075,0 12.03175,0 C10.670875,0 9.567125,1.102875 9.567125,2.463375 C9.567125,3.824375 10.670875,5.40225 12.03175,5.40225 Z" id="Shape"></path>
                <path d="M16.815875,15.33775 C17.350125,15.279125 17.73525,14.796625 17.676,14.26225 L16.896625,7.2475 C16.89125,7.199125 16.865375,7.159625 16.854,7.112875 C16.83575,7.044375 16.822,6.975375 16.78925,6.912375 C16.760375,6.856375 16.719125,6.811 16.679625,6.76275 C16.6415,6.713625 16.608125,6.663 16.560875,6.622 C16.505375,6.573625 16.441375,6.544 16.376625,6.50975 C16.336375,6.4885 16.305125,6.455 16.260125,6.438625 C16.172625,6.406625 14.211125,5.70375 12.40875,5.610875 L12.161,6.106 L12.154875,6.106 L12.811,11.2175 L12.031625,12.57875 L11.25225,11.2175 L11.908375,6.10675 L11.90075,6.10675 L11.65675,5.618125 C10.013875,5.70075 8.24375,6.28525 7.87425,6.413875 C7.857875,6.4185 7.843,6.4245 7.827375,6.43025 C7.81825,6.434125 7.8065,6.437875 7.802625,6.439375 C7.78275,6.446625 7.769875,6.46225 7.751625,6.470625 C7.657625,6.512125 7.569375,6.558875 7.492875,6.627375 C7.457125,6.659375 7.433875,6.698125 7.4035,6.73425 C7.355125,6.791625 7.306,6.846875 7.27175,6.915 C7.2405,6.9755 7.22875,7.041 7.210875,7.10725 C7.197625,7.156 7.172,7.19625 7.166375,7.247625 L6.387,14.262375 C6.328,14.796625 6.71275,15.27925 7.2475,15.337875 C7.284375,15.34325 7.321,15.34475 7.35675,15.34475 C7.846125,15.34475 8.268625,14.975625 8.324125,14.477125 L9.033875,8.088875 C9.1165,8.06375 9.20775,8.0375 9.3045,8.009375 L9.3045,14.65975 L8.528875,24.30125 C8.4775,24.9445 8.957,25.509125 9.600625,25.560125 C9.632625,25.5625 9.664625,25.564 9.69575,25.564 C10.299,25.564 10.81125,25.100375 10.86025,24.4885 L11.560875,15.774125 C11.705875,15.838125 11.865,15.874625 12.032375,15.874625 C12.19975,15.874625 12.359625,15.838125 12.503875,15.774125 L13.2045,24.4885 C13.253625,25.1005 13.76575,25.564 14.368625,25.564 C14.39975,25.564 14.43175,25.562375 14.46375,25.560125 C15.107625,25.509125 15.587125,24.944375 15.535375,24.30125 L14.759,14.65975 L14.759,8.009125 C14.855625,8.0365 14.947,8.06275 15.03,8.088625 L15.739375,14.476875 C15.795,14.976125 16.216625,15.3445 16.70675,15.3445 C16.742125,15.344625 16.778625,15.341625 16.815875,15.33775 Z" id="Shape"></path>
            </g>
        </g>
    </g>
</svg>