<?xml version="1.0" encoding="UTF-8"?>
<svg width="29px" height="29px" viewBox="0 0 29 29" version="1.1" xmlns="http://www.w3.org/2000/svg" xmlns:xlink="http://www.w3.org/1999/xlink">
    <!-- Generator: Sketch 51.3 (57544) - http://www.bohemiancoding.com/sketch -->
    <title>distance</title>
    <desc>Created with Sketch.</desc>
    <defs></defs>
    <g id="Symbols" stroke="none" stroke-width="1" fill="none" fill-rule="evenodd">
        <g id="side-nav/open" transform="translate(-51.000000, -252.000000)" fill="#727982" fill-rule="nonzero">
            <g id="distance" transform="translate(51.000000, 252.000000)">
                <path d="M24.1666855,6.04168555 C21.5016309,6.04168555 19.3333711,8.20994531 19.3333711,10.875 C19.3333711,12.6759453 21.4087969,15.9075195 22.7069434,17.7540605 C22.6291191,17.8130801 22.5601875,17.8843906 22.5170273,17.9793203 C22.3860176,18.2666582 22.4992988,18.6029336 22.7689648,18.7551836 C22.5052461,18.917459 22.4043125,19.2573027 22.5453477,19.5398828 C22.6515488,19.7517187 22.8645176,19.8738359 23.0863789,19.8738359 C23.1772305,19.8738359 23.2692715,19.8531621 23.3559883,19.8101152 L24.4340293,19.2710664 L24.4343125,19.2710098 L24.436918,19.269707 L24.4375977,19.268291 C24.518084,19.2278496 24.5900176,19.1703027 24.646375,19.0968398 C25.0917969,18.5149707 29,13.3441914 29,10.875 C29,8.20994531 26.8317402,6.04168555 24.1666855,6.04168555 Z M24.1666855,12.0833145 C23.5005918,12.0833145 22.9583711,11.5410937 22.9583711,10.875 C22.9583711,10.2089063 23.5005918,9.66668555 24.1666855,9.66668555 C24.8327793,9.66668555 25.375,10.2089063 25.375,10.875 C25.375,11.5410937 24.8327793,12.0833145 24.1666855,12.0833145 Z" id="Shape"></path>
                <path d="M6.30880273,27.3981465 C7.60791211,25.5480371 9.66668555,22.3354375 9.66668555,20.5416855 C9.66668555,17.8766309 7.49842578,15.7083711 4.83337109,15.7083711 C2.16825977,15.7083145 0,17.8766309 0,20.5416855 C0,23.010877 3.90820312,28.1816562 4.35368164,28.7634121 C4.46815234,28.9126602 4.6451543,29 4.83337109,29 C4.92852734,29 5.02039844,28.9771172 5.10315039,28.9358262 L5.10360352,28.9362793 L6.18447656,28.3958145 C6.4830293,28.2465664 6.60395703,27.8836699 6.45470898,27.5851172 C6.4177793,27.5112578 6.36748242,27.4487832 6.30880273,27.3981465 Z M4.83331445,21.75 C4.1672207,21.75 3.625,21.2077793 3.625,20.5416855 C3.625,19.8755918 4.1672207,19.3333711 4.83331445,19.3333711 C5.4994082,19.3333711 6.04162891,19.8755918 6.04162891,20.5416855 C6.04162891,21.2077793 5.49946484,21.75 4.83331445,21.75 Z" id="Shape"></path>
                <path d="M13.2757129,23.4987793 L11.3682266,24.452834 C11.0696738,24.602082 10.9487461,24.9649785 11.0979941,25.2635313 C11.2041953,25.4753672 11.4171641,25.5974844 11.6390254,25.5974844 C11.729877,25.5974844 11.821918,25.5768105 11.9086348,25.5337637 L13.8161211,24.579709 C14.1146738,24.4304609 14.2356016,24.0675645 14.0863535,23.7690117 C13.9365391,23.470459 13.5730762,23.3506641 13.2757129,23.4987793 Z" id="Shape"></path>
                <path d="M20.9080371,19.6826172 L18.9999277,20.6366719 C18.701375,20.7859199 18.5804473,21.1488164 18.7296953,21.4473691 C18.8358965,21.6592051 19.0488652,21.7813223 19.2707266,21.7813223 C19.3615781,21.7813223 19.4536191,21.7606484 19.5403359,21.7176016 L21.4484453,20.7635469 C21.746998,20.6142988 21.8679258,20.2514023 21.7186777,19.9528496 C21.5694863,19.6548633 21.2060234,19.535125 20.9080371,19.6826172 Z" id="Shape"></path>
                <path d="M9.46017383,25.4068887 L7.55206445,26.3609434 C7.25351172,26.5101914 7.13258398,26.8730879 7.28183203,27.1716406 C7.3880332,27.3834766 7.60100195,27.5055937 7.82286328,27.5055937 C7.91371484,27.5055937 8.00575586,27.4849199 8.09247266,27.441873 L10.000582,26.4878184 C10.2991348,26.3385703 10.4200625,25.9756738 10.2708145,25.6771211 C10.121,25.3785684 9.75810352,25.2593398 9.46017383,25.4068887 Z" id="Shape"></path>
                <path d="M17.091875,21.5907266 L15.1837656,22.5447813 C14.8852129,22.6940293 14.7642852,23.0569258 14.9135332,23.3554785 C15.0197344,23.5673145 15.2327031,23.6894316 15.4545645,23.6894316 C15.545416,23.6894316 15.637457,23.6687578 15.7241738,23.6257109 L17.6322832,22.6716563 C17.9308359,22.5224082 18.0517637,22.1595117 17.9025156,21.860959 C17.7527012,21.5624063 17.3904277,21.4420449 17.091875,21.5907266 Z" id="Shape"></path>
                <path d="M20.8478848,17.8252578 C21.0780156,17.8252578 21.297498,17.6936816 21.398375,17.4712539 C21.5364648,17.167377 21.4025098,16.8092383 21.0986328,16.6712051 L18.8801895,15.6628887 C18.5728008,15.523666 18.2176074,15.6599434 18.0801406,15.9626309 C17.9420508,16.2665078 18.0760059,16.6246465 18.3798828,16.7626797 L20.5983262,17.7709961 C20.6797187,17.8081523 20.7646797,17.8252578 20.8478848,17.8252578 Z" id="Shape"></path>
                <path d="M13.643877,13.945998 C13.5057871,14.249875 13.6397422,14.6080137 13.9436191,14.7460469 L16.1614395,15.7543633 C16.2428887,15.7915195 16.3278496,15.808625 16.410998,15.808625 C16.6411289,15.808625 16.8606113,15.6770488 16.9614883,15.4546211 C17.0995781,15.1507441 16.965623,14.7926055 16.6617461,14.6545723 L14.4439258,13.6462559 C14.1383496,13.5064102 13.7807773,13.6433105 13.643877,13.945998 Z" id="Shape"></path>
                <path d="M11.974168,13.7914258 C12.2042988,13.7914258 12.4237813,13.6598496 12.5246582,13.4374219 C12.662748,13.1335449 12.5282266,12.7754062 12.224916,12.637373 L11.8076445,12.4477402 C12.952125,10.8854785 15.7083145,6.90941992 15.7083145,4.83331445 C15.7083145,2.16825977 13.5400547,0 10.875,0 C8.20994531,0 6.04168555,2.16825977 6.04168555,4.83331445 C6.04168555,7.30250586 9.94988867,12.4732852 10.3953672,13.055041 C10.455123,13.1329219 10.5326641,13.1915449 10.6192109,13.232043 C10.6229492,13.2337988 10.6209102,13.235498 10.624875,13.2373672 L11.7246094,13.7371074 C11.8060586,13.7743203 11.8910195,13.7914258 11.974168,13.7914258 Z M9.66668555,4.83331445 C9.66668555,4.1672207 10.2089063,3.625 10.875,3.625 C11.5410937,3.625 12.0833145,4.1672207 12.0833145,4.83331445 C12.0833145,5.4994082 11.5410937,6.04162891 10.875,6.04162891 C10.2089063,6.04162891 9.66668555,5.49946484 9.66668555,4.83331445 Z" id="Shape"></path>
            </g>
        </g>
    </g>
</svg>