<?xml version="1.0" encoding="UTF-8"?>
<svg width="27px" height="31px" viewBox="0 0 27 31" version="1.1" xmlns="http://www.w3.org/2000/svg" xmlns:xlink="http://www.w3.org/1999/xlink">
    <!-- Generator: Sketch 51.3 (57544) - http://www.bohemiancoding.com/sketch -->
    <title>hands-with-hearts</title>
    <desc>Created with Sketch.</desc>
    <defs></defs>
    <g id="Symbols" stroke="none" stroke-width="1" fill="none" fill-rule="evenodd">
        <g id="side-nav/open" transform="translate(-52.000000, -189.000000)" fill="#727982" fill-rule="nonzero">
            <g id="hands-with-hearts" transform="translate(52.000000, 189.000000)">
                <path d="M9.63920716,17.7728363 C10.4891202,18.5900179 11.4500716,18.8727238 11.5854169,19.448977 C11.7109565,19.982555 11.3113427,26.8377238 11.1134348,30.0786905 L17.233665,30.0786905 C16.9544118,26.8806061 16.3949386,20.1615422 16.5583197,19.448977 C16.7976598,18.4064731 18.074532,17.1766957 18.5992711,16.3275422 C19.0139386,15.6566854 19.2245524,14.8582174 19.2251049,13.9539591 L19.2264169,5.66033248 C19.2264169,5.16570077 18.8218312,4.76339386 18.3272685,4.76339386 C17.8326368,4.76339386 17.4127903,5.16570077 17.4127903,5.66033248 L17.4127903,10.0080921 C17.4127212,10.1838338 17.2808286,10.3163478 17.1061918,10.3162097 C16.9317621,10.3162097 16.7999386,10.1842481 16.7999386,10.0094041 L16.7999386,2.02955754 C16.7999386,2.02955754 16.8212762,1.08517903 15.9030691,1.08517903 C14.9849309,1.08517903 15.0059923,2.03038619 15.0059923,2.03038619 L15.0059923,9.43812276 C15.0070972,9.46843734 15.0040588,9.57015345 14.9272711,9.65142967 C14.8884629,9.69293095 14.8167852,9.74216624 14.6962864,9.74216624 C14.5750281,9.74216624 14.5030051,9.69286189 14.4641279,9.65142967 C14.3880997,9.57125831 14.3849923,9.47189003 14.385821,9.44261125 L14.385821,0.897007673 C14.3856829,0.402375959 13.983376,0 13.4886061,0 C12.9941816,0 12.5915294,0.402375959 12.5915294,0.897007673 L12.5915294,9.45842455 C12.5933248,9.49170844 12.5915294,9.59397698 12.5160537,9.6761509 C12.4769003,9.71875703 12.4049463,9.76951151 12.2815473,9.76951151 C12.1611867,9.76951151 12.0897161,9.71986189 12.050977,9.67829156 C11.9745345,9.59591049 11.9717724,9.49315857 11.9732916,9.46132481 L11.9714962,1.99109463 C11.9714962,1.49632481 11.5691202,1.0938798 11.0746957,1.0938798 C10.5798568,1.0938798 10.1775499,1.49632481 10.1775499,1.99109463 L10.1775499,11.6637238 C10.179,11.6983197 10.1769284,11.8289693 10.0875038,11.9232967 C10.0493171,11.9633478 9.98102302,12.0112711 9.87198721,12.0112711 C9.76163939,12.0112711 9.69375959,11.9629335 9.65612532,11.922399 C9.56835806,11.8283478 9.56808184,11.6994246 9.57015345,11.6623427 L9.57015345,8.61707417 C9.57015345,8.11443223 9.16107928,7.70542711 8.65823018,7.70542711 C8.15551918,7.70542711 7.74672123,8.11443223 7.74672123,8.61707417 L7.74672123,13.2009974 C7.74644501,15.7378926 8.42144501,16.6010639 9.63920716,17.7728363 Z M13.087335,11.363202 C13.4676138,11.363202 13.8269003,11.4879821 14.1201023,11.7183453 C14.4137187,11.4879821 14.7726598,11.363202 15.1529386,11.363202 C16.0779821,11.363202 16.8305985,12.1158875 16.8305985,13.0409309 C16.8305985,14.2447442 15.9350409,14.8450972 15.2156394,15.3275064 C14.813954,15.5965396 14.4342967,15.8510716 14.3558517,16.1274246 C14.3258133,16.230867 14.2324527,16.30289 14.1250051,16.3050307 L14.1201023,16.3050307 C14.0147263,16.3050307 13.9208133,16.2373581 13.8877366,16.1366777 C13.7936164,15.8498286 13.4144425,15.5949514 13.0130332,15.3254348 C12.2989488,14.8457187 11.4099514,14.2486113 11.4099514,13.0408619 C11.4099514,12.1158875 12.1626368,11.363202 13.087335,11.363202 Z" id="Shape"></path>
                <path d="M17.9132225,30.0786905 L21.6065601,30.0786905 C21.9298696,27.6012506 22.5399591,23.0424629 22.696711,22.6920844 C22.8746624,22.2948875 23.6073223,22.2241074 24.334665,21.7521944 C25.3766854,21.0752609 25.9840128,20.5461714 26.3363939,18.714798 L26.9735524,15.405468 C27.0432276,15.0425908 26.8046471,14.6904859 26.4418389,14.6206036 C26.0787545,14.5507903 25.7269258,14.7890946 25.6568363,15.1520409 L25.2339514,17.3504348 C25.2299463,17.3772967 25.2120614,17.4705882 25.1354808,17.5263146 C25.1028184,17.5505524 25.0472992,17.575688 24.9678875,17.560289 C24.8886138,17.5451662 24.8458696,17.50111 24.8241176,17.4667903 C24.7725345,17.3864118 24.7893146,17.2920153 24.795046,17.2668107 L26.1391765,10.2838926 C26.2078159,9.9267468 25.9731714,9.58023529 25.6159565,9.51159591 C25.259156,9.44281841 24.9124373,9.67739386 24.843798,10.0344706 L23.8048849,15.4274271 C23.801087,15.450491 23.7852046,15.5244476 23.7182225,15.5731304 C23.6845934,15.5977826 23.6259668,15.6238159 23.5389591,15.6069668 C23.4503632,15.5897033 23.4049949,15.5432992 23.3828286,15.507046 C23.3397391,15.4370256 23.3525831,15.3632762 23.3583836,15.3393836 L24.54811,9.15845524 C24.6168875,8.80130946 24.3821049,8.45493606 24.0249591,8.38602046 C23.6681586,8.31745013 23.3214399,8.55195652 23.2529386,8.90903325 L22.0652148,15.0784987 C22.0620384,15.0998363 22.0460179,15.1710307 21.9801407,15.2184706 C21.9463043,15.2429156 21.8873325,15.2685345 21.7997033,15.2515473 C21.7127647,15.2348363 21.6682251,15.189399 21.6457826,15.1540435 C21.6017263,15.0847136 21.6133964,15.0111023 21.6185064,14.9893504 L22.6479591,9.64127877 C22.6479591,9.64127877 22.7940767,8.96172123 22.1314373,8.83417903 C21.468798,8.70663683 21.3525115,9.3913734 21.3525115,9.3913734 L20.2439923,15.1523171 C20.2195473,15.2785473 20.1048491,15.3627238 19.9802762,15.3313043 C19.8399591,15.2959488 19.8014962,15.0664143 19.8014962,15.0664143 C19.4699003,16.1426854 19.1307775,16.8383325 18.5968542,17.4739719 C18.1248031,18.0361381 17.8751049,18.4095806 17.8751049,18.4095806 C17.8782813,18.7819182 17.9418798,19.1347826 18.0670051,19.4638235 C18.327821,20.1493887 19.0788491,21.2150256 19.1068159,22.0005115 C19.1213862,22.4080665 18.35489,25.2534246 17.7020563,27.5946215 C17.7721458,28.4457084 17.8438926,29.2871279 17.9132225,30.0786905 Z M19.8004604,17.3367621 C19.9287621,16.6691509 20.5766931,16.2301074 21.2445806,16.3588235 C21.5193453,16.4116496 21.7611714,16.5515524 21.9410563,16.7587136 C22.1847468,16.6329668 22.4615831,16.5927775 22.7357263,16.6455345 C23.4036829,16.7743197 23.8421739,17.4221125 23.7140102,18.09 C23.5458645,18.9619412 22.821491,19.2694373 22.2388849,19.5166496 C21.9120537,19.6555857 21.6026931,19.7863734 21.4947621,19.9806215 C21.457266,20.0487084 21.3799949,20.0846164 21.3035524,20.0699079 C21.3023095,20.0696317 21.3013427,20.0694936 21.3000307,20.0692174 C21.2228977,20.0529207 21.165445,19.9880102 21.1583325,19.9091509 C21.1398261,19.6986061 20.9013836,19.4621662 20.6482327,19.2119847 C20.1961381,18.7636189 19.6332813,18.205734 19.8004604,17.3367621 Z" id="Shape"></path>
                <path d="M4.34347826,22.6920844 C4.50029923,23.0424629 5.11038875,27.6012506 5.43369821,30.0786905 L10.0398568,30.0786905 C9.47720716,28.110798 7.91307161,22.5813913 7.93358056,22.0007877 C7.96140921,21.2153018 8.71243734,20.1495269 8.97332225,19.4640997 C9.11536573,19.0897596 9.17889514,18.6856573 9.16363427,18.2559361 C8.2387289,17.3654194 7.54743223,16.5840767 7.24186957,15.1271125 C7.23572379,15.2281381 7.16556522,15.3113478 7.06005115,15.3315806 C6.93423529,15.3559565 6.82064194,15.2788235 6.79633504,15.1525934 L5.68781586,9.39164962 C5.68781586,9.39164962 5.57159847,8.70684399 4.90889003,8.83445524 C4.24618159,8.9620665 4.39223018,9.64155499 4.39223018,9.64155499 L5.42182097,14.9896266 C5.42693095,15.0112404 5.43860102,15.0849898 5.39454476,15.1543197 C5.3721023,15.1896752 5.32742455,15.2351125 5.24062404,15.2518235 C5.15285678,15.2688107 5.09402302,15.2433299 5.06011765,15.2187468 C4.99424041,15.1712379 4.97821995,15.0999744 4.97504348,15.0787749 L3.78752685,8.90930946 C3.71888747,8.55223274 3.37209974,8.31772634 3.01536829,8.38629668 C2.65815345,8.45521228 2.42323274,8.80158568 2.49214834,9.15873146 L3.68180563,15.3396598 C3.68774425,15.3635524 3.70058824,15.4373018 3.65742967,15.5073223 C3.63540153,15.5435754 3.58989514,15.5899795 3.50129923,15.607243 C3.41429156,15.6240921 3.35580307,15.5980588 3.32203581,15.5734066 C3.25512276,15.5247238 3.23917136,15.4507673 3.23544246,15.4277033 L2.19652941,10.0347468 C2.12789003,9.67767008 1.78117136,9.44309463 1.4244399,9.51187212 C1.06715601,9.58044246 0.832511509,9.92702302 0.901150895,10.2841688 L2.24528133,17.267087 C2.25101279,17.2921535 2.26786189,17.3864808 2.21620972,17.4670665 C2.19438875,17.5013171 2.15171355,17.5454425 2.0724399,17.5605652 C1.99309719,17.5759642 1.93750895,17.5506905 1.90484655,17.5265908 C1.82840409,17.4708645 1.81038107,17.3775729 1.80637596,17.350711 L1.38349105,15.1523171 C1.31333248,14.7893708 0.96157289,14.5510665 0.598488491,14.6208798 C0.235680307,14.6908312 -0.00290025575,15.042867 0.0667749361,15.4057442 L0.70386445,18.7150742 C1.05631458,20.5464476 1.66364194,21.0756752 2.7056624,21.7524706 C3.43300512,22.2241074 4.16552685,22.2948875 4.34347826,22.6920844 Z M4.30460102,16.6456036 C4.57874425,16.5927084 4.85551151,16.6328977 5.0992711,16.7587826 C5.27908696,16.5516215 5.52084399,16.4117187 5.7957468,16.3588926 C6.46363427,16.2301765 7.11149616,16.6692199 7.23986701,17.3368312 C7.40711509,18.2058031 6.84418926,18.7636189 6.39202558,19.2120537 C6.13887468,19.4622353 5.90043223,19.6986752 5.88199488,19.9092199 C5.87488235,19.9882174 5.81742967,20.0529898 5.74029668,20.0692864 C5.73898465,20.0695627 5.7380179,20.0697008 5.73677494,20.069977 C5.66047059,20.0846854 5.58313043,20.0487775 5.54563427,19.9806905 C5.43763427,19.7865115 5.12834271,19.6556547 4.80144246,19.5167187 C4.21876726,19.2695064 3.49432481,18.9620102 3.32631714,18.0900691 C3.1980844,17.4221816 3.6366445,16.7743887 4.30460102,16.6456036 Z" id="Shape"></path>
            </g>
        </g>
    </g>
</svg>