<?xml version="1.0" encoding="UTF-8"?>
<svg width="26px" height="21px" viewBox="0 0 26 21" version="1.1" xmlns="http://www.w3.org/2000/svg" xmlns:xlink="http://www.w3.org/1999/xlink">
    <!-- Generator: Sketch 51.3 (57544) - http://www.bohemiancoding.com/sketch -->
    <title>home</title>
    <desc>Created with Sketch.</desc>
    <defs></defs>
    <g id="Symbols" stroke="none" stroke-width="1" fill="none" fill-rule="evenodd">
        <g id="side-nav/closed" transform="translate(-17.000000, -105.000000)" fill="#727982" fill-rule="nonzero">
            <g id="home" transform="translate(17.000000, 105.000000)">
                <path d="M13.0083853,4.21734632 L3.76977489,11.8336017 C3.76977489,11.8443506 3.76707359,11.8601645 3.761671,11.8817186 C3.75638095,11.9031039 3.7535671,11.9186364 3.7535671,11.9296667 L3.7535671,19.6419307 C3.7535671,19.9203896 3.85537229,20.1617056 4.05892641,20.3649221 C4.26242424,20.5682511 4.5034026,20.6705628 4.78191775,20.6705628 L10.9515714,20.6705628 L10.9515714,14.5005714 L15.0652554,14.5005714 L15.0652554,20.6707879 L21.2348528,20.6707879 C21.5133117,20.6707879 21.7546277,20.5687013 21.9578442,20.3649221 C22.1613983,20.1619307 22.2635411,19.9204459 22.2635411,19.6419307 L22.2635411,11.9296667 C22.2635411,11.8868961 22.2576883,11.8545931 22.2473333,11.8336017 L13.0083853,4.21734632 Z" id="Shape"></path>
                <path d="M25.7817576,10.0982424 L22.2632035,7.17397403 L22.2632035,0.618428571 C22.2632035,0.468562771 22.2150303,0.345316017 22.1183463,0.248857143 C22.0224502,0.152510823 21.8992035,0.104337662 21.749,0.104337662 L18.6641169,0.104337662 C18.5140823,0.104337662 18.3908918,0.152510823 18.2943766,0.248857143 C18.1980866,0.345316017 18.1499697,0.468619048 18.1499697,0.618428571 L18.1499697,3.75154113 L14.2295974,0.473683983 C13.8872078,0.195168831 13.4800996,0.0559393939 13.0087229,0.0559393939 C12.5374026,0.0559393939 12.1303506,0.195168831 11.7876234,0.473683983 L0.234787879,10.0982424 C0.127692641,10.1837835 0.068995671,10.2989264 0.0580779221,10.4435584 C0.0472164502,10.5880779 0.0846406926,10.7143074 0.170463203,10.8213463 L1.16662338,12.010368 C1.25244589,12.1067143 1.36477489,12.1656364 1.50406061,12.1871905 C1.63265368,12.1979957 1.76124675,12.1604026 1.88983983,12.0747489 L13.0083853,2.80355411 L24.1270433,12.0746926 C24.2129221,12.1494286 24.3251948,12.1867403 24.4644805,12.1867403 L24.5127662,12.1867403 C24.6518268,12.1655801 24.7639307,12.1062641 24.8502035,12.0101429 L25.8464762,10.82129 C25.9321299,10.714026 25.9696667,10.5880216 25.9585238,10.4433333 C25.9475498,10.2990952 25.8886277,10.1839524 25.7817576,10.0982424 Z" id="Shape"></path>
            </g>
        </g>
    </g>
</svg>