<?xml version="1.0" encoding="UTF-8"?>
<svg width="21px" height="21px" viewBox="0 0 21 21" version="1.1" xmlns="http://www.w3.org/2000/svg" xmlns:xlink="http://www.w3.org/1999/xlink">
    <!-- Generator: Sketch 51.3 (57544) - http://www.bohemiancoding.com/sketch -->
    <title>question (1)</title>
    <desc>Created with Sketch.</desc>
    <defs></defs>
    <g id="Symbols" stroke="none" stroke-width="1" fill="none" fill-rule="evenodd">
        <g id="side-nav/open" transform="translate(-55.000000, -610.000000)" fill="#727982" fill-rule="nonzero">
            <g id="question-(1)" transform="translate(55.000000, 610.000000)">
                <path d="M10.5243326,0.0320478261 C10.5241043,0.0320478261 10.5238761,0.0320478261 10.5236478,0.0320478261 L10.4944304,0.0320478261 C4.71765,0.0129652174 0.019173913,4.68048913 4.56521739e-05,10.4572239 C-0.00680217391,12.535037 0.605302174,14.567837 1.75838478,16.2963652 L0.063776087,20.3575826 C-0.0113217391,20.5114761 0.0289891304,20.6967783 0.161152174,20.8055674 C0.241773913,20.8920783 0.354580435,20.9414283 0.472819565,20.9419304 C0.527373913,20.9538 0.583845652,20.9538 0.6384,20.9419304 L4.75805217,19.2181043 C6.46421087,20.3575826 8.47194783,20.961287 10.5236022,20.9516543 C16.3003826,20.951837 20.9835652,16.2689739 20.9837935,10.4921935 C20.9840217,4.71541304 16.301113,0.0322304348 10.5243326,0.0320478261 Z M10.9229217,15.5367587 C10.9230587,15.6379239 10.8847565,15.735437 10.8157761,15.8094391 L10.8060522,15.8094391 C10.7234217,15.8944435 10.6126239,15.9463957 10.4943848,15.9555261 C10.375187,15.9502761 10.2630196,15.8976848 10.1827174,15.8094391 C10.1027804,15.7331543 10.0571283,15.6277435 10.0561239,15.5172652 C10.0467196,15.4068783 10.0900435,15.2985457 10.1729935,15.2250913 C10.3404,15.0502891 10.6178283,15.044263 10.7926304,15.2117152 C10.7971957,15.2160978 10.8016696,15.2205261 10.8060065,15.2250913 C10.8935217,15.3036587 10.9371652,15.4200261 10.9229217,15.5367587 Z M10.9229217,11.26125 L10.9229217,11.2709739 L10.9229217,13.2188152 C10.9229217,13.4581696 10.7289,13.6521913 10.4895457,13.6521913 C10.2501913,13.6521913 10.0561696,13.4581696 10.0561696,13.2188152 L10.0561696,10.8717 C10.0505543,10.6404717 10.2333913,10.4484587 10.4646196,10.4428435 C10.4745717,10.4426152 10.4844783,10.4427065 10.4944304,10.443163 C11.7470348,10.4271848 12.7540304,9.40717826 12.7538935,8.15448261 C12.7533457,6.90662609 11.7413283,5.89543043 10.4934717,5.89597826 C9.24634565,5.89652609 8.23546957,6.90735652 8.23496739,8.15448261 C8.23496739,8.39922391 8.03656304,8.59762826 7.79182174,8.59762826 C7.54708043,8.59762826 7.34867609,8.39922391 7.34867609,8.15448261 C7.34338043,6.41714348 8.7474587,5.00443696 10.4847522,4.9991413 C12.2220457,4.99384565 13.6347978,6.39787826 13.6400935,8.13521739 C13.6449326,9.71062826 12.4836326,11.0466391 10.9229217,11.26125 Z" id="Shape"></path>
            </g>
        </g>
    </g>
</svg>