<?xml version="1.0" encoding="UTF-8"?>
<svg width="16px" height="26px" viewBox="0 0 16 26" version="1.1" xmlns="http://www.w3.org/2000/svg" xmlns:xlink="http://www.w3.org/1999/xlink">
    <!-- Generator: Sketch 51.3 (57544) - http://www.bohemiancoding.com/sketch -->
    <title>solution</title>
    <desc>Created with Sketch.</desc>
    <defs></defs>
    <g id="Symbols" stroke="none" stroke-width="1" fill="none" fill-rule="evenodd">
        <g id="side-nav/open" transform="translate(-58.000000, -368.000000)" fill="#727982" fill-rule="nonzero">
            <g id="solution" transform="translate(58.000000, 368.000000)">
                <path d="M8,4.46258228 C3.61529114,4.46258228 0.048,8.02982278 0.048,12.4145823 C0.0480506329,15.1034937 1.42086076,17.6167089 3.65929114,19.0782278 L3.65929114,19.4098734 L7.23331646,19.4098734 L7.23331646,15.4463797 C6.23807595,15.1225823 5.5164557,14.1865316 5.5164557,13.0846582 C5.5164557,12.6613671 5.85964557,12.3181772 6.28293671,12.3181772 C6.70622785,12.3181772 7.04941772,12.6613671 7.04941772,13.0846582 C7.04941772,13.6086582 7.47574684,14.035038 7.99979747,14.035038 C8.5238481,14.035038 8.95012658,13.6087089 8.95012658,13.0846582 C8.95012658,12.6613671 9.29331646,12.3181772 9.71660759,12.3181772 C10.1398987,12.3181772 10.4830886,12.6613671 10.4830886,13.0846582 C10.4830886,14.1865316 9.76151899,15.1225823 8.76622785,15.4463797 L8.76622785,19.4098734 L12.3404051,19.4098734 L12.3404051,19.0783291 C14.5789873,17.6168101 15.9518987,15.1035443 15.9518987,12.4145823 C15.952,8.02987342 12.3847089,4.46258228 8,4.46258228 Z" id="Shape"></path>
                <path d="M3.65934177,20.9427848 L3.65934177,21.583443 C3.65934177,23.9768608 5.60653165,25.924 7.99994937,25.924 C10.3933671,25.924 12.340557,23.9768101 12.340557,21.583443 L12.340557,20.9427848 L3.65934177,20.9427848 Z" id="Shape"></path>
                <path d="M8,0 C7.57670886,0 7.23351899,0.343189873 7.23351899,0.766481013 L7.23351899,2.11205063 C7.23351899,2.53534177 7.57670886,2.87853165 8,2.87853165 C8.42329114,2.87853165 8.76648101,2.53534177 8.76648101,2.11205063 L8.76648101,0.766481013 C8.76648101,0.343189873 8.42329114,0 8,0 Z" id="Shape"></path>
                <path d="M5.84389873,2.30865823 L5.3681519,1.04992405 C5.21848101,0.653974684 4.77605063,0.454329114 4.38020253,0.603949367 C3.98425316,0.75356962 3.78455696,1.19589873 3.93422785,1.59189873 L4.40997468,2.85063291 C4.52592405,3.15741772 4.81746835,3.34632911 5.12708861,3.34632911 C5.21711392,3.34632911 5.30875949,3.33032911 5.39792405,3.29660759 C5.79387342,3.14698734 5.99356962,2.70465823 5.84389873,2.30865823 Z" id="Shape"></path>
                <path d="M11.6197468,0.603898734 C11.2237468,0.454227848 10.7814684,0.653974684 10.6317975,1.04992405 L10.1560506,2.30865823 C10.0064304,2.70460759 10.2061266,3.14693671 10.6020759,3.29660759 C10.6912911,3.33032911 10.7828861,3.34632911 10.8729114,3.34632911 C11.1825316,3.34632911 11.4741266,3.15736709 11.5900253,2.85058228 L12.0657722,1.5918481 C12.2153924,1.1958481 12.0156962,0.75356962 11.6197468,0.603898734 Z" id="Shape"></path>
            </g>
        </g>
    </g>
</svg>