<?xml version="1.0" encoding="UTF-8"?>
<svg width="20px" height="23px" viewBox="0 0 20 23" version="1.1" xmlns="http://www.w3.org/2000/svg" xmlns:xlink="http://www.w3.org/1999/xlink">
    <!-- Generator: Sketch 51.3 (57544) - http://www.bohemiancoding.com/sketch -->
    <title>blockchain (1)</title>
    <desc>Created with Sketch.</desc>
    <defs></defs>
    <g id="Symbols" stroke="none" stroke-width="1" fill="none" fill-rule="evenodd">
        <g id="side-nav/open" transform="translate(-56.000000, -315.000000)" fill="#727982" fill-rule="nonzero">
            <g id="blockchain-(1)" transform="translate(56.000000, 315.000000)">
                <polygon id="Shape" points="8 6 8 1.2944 7.2 2.8944 7.2 6 6.4 6 6.4 3.2 0 3.2 0 9.6 6.4 9.6 6.4 6.8 7.2 6.8 7.2 8.1152 7.7844 6.8 11.6 6.8 11.6 6"></polygon>
                <polygon id="Shape" points="1.4472 0 0.2472 2.4 6.5528 2.4 7.7528 0"></polygon>
                <polygon id="Shape" points="6.5528 15.2 7.7528 12.8 3.6 12.8 3.6 10 2.8 10 2.8 12.8 1.4472 12.8 0.2472 15.2 2.8 15.2 2.8 16 0 16 0 22.4 6.4 22.4 6.4 16 3.6 16 3.6 15.2"></polygon>
                <polygon id="Shape" points="12 16 12 18.8 8 18.8 8 14.0944 7.2 15.6944 7.2 18.8 6.8 18.8 6.8 19.6 7.2 19.6 7.2 20.9152 7.7844 19.6 12 19.6 12 22.4 18.4 22.4 18.4 16"></polygon>
                <polygon id="Shape" points="15.6 12.8 15.6 9.6 18.4 9.6 18.4 3.2 12 3.2 12 9.6 14.8 9.6 14.8 12.8 13.4472 12.8 12.2472 15.2 14.8 15.2 14.8 15.6 15.6 15.6 15.6 15.2 18.5528 15.2 19.7528 12.8"></polygon>
                <polygon id="Shape" points="19.2 15.6944 19.2 20.9152 20 19.1152 20 14.0944"></polygon>
                <polygon id="Shape" points="19.2 2.8944 19.2 8.1152 20 6.3152 20 1.2944"></polygon>
                <polygon id="Shape" points="13.4472 0 12.2472 2.4 18.5528 2.4 19.7528 0"></polygon>
            </g>
        </g>
    </g>
</svg>