<?xml version="1.0" encoding="UTF-8"?>
<svg width="23px" height="25px" viewBox="0 0 23 25" version="1.1" xmlns="http://www.w3.org/2000/svg" xmlns:xlink="http://www.w3.org/1999/xlink">
    <!-- Generator: Sketch 51.3 (57544) - http://www.bohemiancoding.com/sketch -->
    <title>negotiation</title>
    <desc>Created with Sketch.</desc>
    <defs></defs>
    <g id="Symbols" stroke="none" stroke-width="1" fill="none" fill-rule="evenodd">
        <g id="side-nav/open" transform="translate(-54.000000, -431.000000)" fill="#727982" fill-rule="nonzero">
            <g id="negotiation" transform="translate(54.000000, 431.000000)">
                <path d="M21.8103448,2.37931034 L13.4827586,2.37931034 L13.4827586,1.18965517 C13.4827586,0.532618534 12.9501401,0 12.2931034,0 L1.18965517,0 C0.532618534,0 1.58876276e-16,0.532618534 1.58876276e-16,1.18965517 L1.58876276e-16,9.9137931 C-0.000693965517,10.1657522 0.0154655172,10.4174634 0.0483793103,10.6672414 C0.247448276,12.0441681 1.35541379,13.1104957 2.73898276,13.2567241 L3.61615517,13.3542759 C3.39939009,13.7473082 3.25930819,14.1779138 3.20334483,14.6232414 L4.32598276,14.6232414 L5.08696552,13.8618621 C5.22273491,13.7256961 5.43057759,13.6919397 5.60248276,13.7781897 L7.29298276,14.6232414 L10.2798103,14.6232414 C10.0381616,12.6714138 8.26007328,11.285069 6.30824569,11.5266681 C5.3984569,11.6392888 4.56708621,12.0984957 3.98732759,12.8086207 C3.58522414,12.4410172 3.17717241,12.002431 3.18153448,11.7018448 C3.19818966,10.6672414 4.20344828,9.9137931 5.24043103,9.9137931 L12.2931034,9.9137931 C12.9501401,9.9137931 13.4827586,9.38117457 13.4827586,8.72413793 L13.4827586,8.32758621 L18.637931,8.32758621 C19.9520043,8.32758621 21.0172414,9.39282328 21.0172414,10.7068966 C21.0171918,11.2258836 20.8761681,11.735056 20.6091897,12.1800862 L20.086931,13.0525 C19.5695302,12.328347 18.7348384,11.8979892 17.8448276,11.8965517 L13.5109138,11.8965517 C13.7080496,13.262375 14.8786207,14.2760108 16.2586207,14.2758621 L20.5842069,14.2758621 C20.5442543,14.0007543 20.4626638,13.7333297 20.3423103,13.4827586 L20.4180517,13.4827586 C21.410472,13.4836013 22.3000366,12.8708297 22.6530172,11.9433448 C22.8628427,11.4233664 22.9802716,10.870722 23,10.3103448 L23,3.56896552 C23,2.91192888 22.4673815,2.37931034 21.8103448,2.37931034 Z M1.5862069,1.5862069 L9.9137931,1.5862069 L9.9137931,2.37931034 L1.5862069,2.37931034 L1.5862069,1.5862069 Z M2.37931034,5.55172414 L1.5862069,5.55172414 L1.5862069,4.75862069 L2.37931034,4.75862069 L2.37931034,5.55172414 Z M1.5862069,3.96551724 L1.5862069,3.17241379 L3.96551724,3.17241379 L3.96551724,3.96551724 L1.5862069,3.96551724 Z M6.34482759,5.55172414 L3.17241379,5.55172414 L3.17241379,4.75862069 L6.34482759,4.75862069 L6.34482759,5.55172414 Z M10.7068966,5.55172414 L7.13793103,5.55172414 L7.13793103,4.75862069 L10.7068966,4.75862069 L10.7068966,5.55172414 Z M10.7068966,3.96551724 L4.75862069,3.96551724 L4.75862069,3.17241379 L10.7068966,3.17241379 L10.7068966,3.96551724 Z M14.6724138,4.36206897 L15.4655172,4.36206897 L15.4655172,5.15517241 L14.6724138,5.15517241 L14.6724138,4.36206897 Z M17.4482759,6.74137931 L14.6724138,6.74137931 L14.6724138,5.94827586 L17.4482759,5.94827586 L17.4482759,6.74137931 Z M21.8103448,6.74137931 L18.2413793,6.74137931 L18.2413793,5.94827586 L21.8103448,5.94827586 L21.8103448,6.74137931 Z M21.8103448,5.15517241 L16.2586207,5.15517241 L16.2586207,4.36206897 L21.8103448,4.36206897 L21.8103448,5.15517241 Z" id="Shape"></path>
                <path d="M20.2242866,20.8274375 C20.1579634,20.8274375 20.0916897,20.8316013 20.0258621,20.8398793 C19.3780453,20.9495754 18.7639849,20.5133685 18.6542888,19.8655517 C18.6415496,19.7903556 18.636097,19.7141681 18.637931,19.637931 L18.637931,19.4305345 C19.6040302,19.0875668 20.3767112,18.3469073 20.7602759,17.3962241 C20.8368103,17.1935862 20.7345991,16.9673039 20.5319612,16.8907694 C20.5219978,16.8870022 20.5119353,16.883681 20.5017241,16.8807069 C20.5736487,16.6168513 20.6114698,16.3448168 20.6143448,16.0713448 L16.2586207,16.0713448 C15.5740733,16.0714935 14.9040991,15.8732672 14.3297931,15.5007069 C14.2941034,15.6888211 14.2760603,15.8798599 14.2758621,16.0713448 C14.2784397,16.3455108 14.3169547,16.6181401 14.3904655,16.8822931 C14.1829698,16.9445022 14.065194,17.1631013 14.127403,17.370597 C14.1301789,17.3797672 14.1332522,17.3888879 14.1366724,17.3978103 C14.5204353,18.3478987 15.2929677,19.0879138 16.2586207,19.4305345 L16.2586207,19.637931 C16.2746315,20.2947694 15.7551487,20.8402263 15.0983103,20.8562371 C15.0220733,20.8580711 14.9458858,20.8526185 14.8706897,20.8398793 C14.0015474,20.7303815 13.2081466,21.3461767 13.0986487,22.2153685 C13.0903707,22.2811961 13.0862069,22.3474698 13.0862069,22.4137931 L13.0862069,24.3965517 L21.8103448,24.3965517 L21.8103448,22.4137931 C21.810444,21.5377608 21.100319,20.8275366 20.2242866,20.8274375 Z" id="Shape"></path>
                <path d="M9.51724138,20.4310345 C8.855,20.4298944 8.26349353,20.0164397 8.03493103,19.3948448 C9.2531875,18.9172974 10.1138039,17.8130991 10.2794138,16.5150862 L7.18631034,16.5150862 C7.11745905,16.5148879 7.04959914,16.4987284 6.98803448,16.4678966 L5.49065517,15.7196034 L4.82643103,16.3862069 C4.74226293,16.4702263 4.6281056,16.5173168 4.50918966,16.517069 L3.20056897,16.517069 C3.36617888,17.8150819 4.22679526,18.9192802 5.44505172,19.3968276 C5.21619181,20.0166875 4.62627155,20.4290517 3.96551724,20.4310345 C3.08948491,20.4310345 2.37931034,21.1412091 2.37931034,22.0172414 L2.37931034,24.3965517 L11.1034483,24.3965517 L11.1034483,22.0172414 C11.1034483,21.1412091 10.3932737,20.4310345 9.51724138,20.4310345 Z" id="Shape"></path>
            </g>
        </g>
    </g>
</svg>