<?xml version="1.0" encoding="UTF-8"?>
<svg width="92px" height="112px" viewBox="0 0 92 112" version="1.1" xmlns="http://www.w3.org/2000/svg" xmlns:xlink="http://www.w3.org/1999/xlink">
    <!-- Generator: Sketch 51.3 (57544) - http://www.bohemiancoding.com/sketch -->
    <title>010-people</title>
    <desc>Created with Sketch.</desc>
    <defs></defs>
    <g id="Main-pages" stroke="none" stroke-width="1" fill="none" fill-rule="evenodd">
        <g id="page-8" transform="translate(-197.000000, -217.000000)" fill="#000000" fill-rule="nonzero">
            <g id="010-people" transform="translate(197.000000, 217.000000)">
                <path d="M16.5,38 C11.2616054,38 7,42.2618218 7,47.5 C7,52.7381782 11.2616054,57 16.5,57 C21.7383946,57 26,52.7381782 26,47.5 C26,42.2618218 21.7383946,38 16.5,38 Z M16.5,53.7532686 C13.052025,53.7532686 10.2471641,50.9481914 10.2471641,47.5004328 C10.2471641,44.0526741 13.0522414,41.2475969 16.5,41.2475969 C19.9477586,41.2475969 22.7528359,44.0526741 22.7528359,47.5004328 C22.7528359,50.9481914 19.947975,53.7532686 16.5,53.7532686 Z" id="Shape"></path>
                <path d="M46.5001132,38 C39.607684,38 34,43.6074068 34,50.5 C34,57.3925932 39.6074576,63 46.5001132,63 C53.3927688,63 59,57.3925932 59,50.5 C59,43.6074068 53.3925424,38 46.5001132,38 Z M46.5001132,59.6022715 C41.4811387,59.6022715 37.3975329,55.5189291 37.3975329,50.4997736 C37.3975329,45.480618 41.4809122,41.3972757 46.5001132,41.3972757 C51.5193142,41.3972757 55.6024671,45.480618 55.6024671,50.4997736 C55.6024671,55.5189291 51.5190878,59.6022715 46.5001132,59.6022715 Z" id="Shape"></path>
                <path d="M74.5001082,38 C69.2616539,38 65,42.2618218 65,47.5 C65,52.7381782 69.2618703,57 74.5001082,57 C79.7383461,57 84,52.7381782 84,47.5 C84,42.2618218 79.7381297,38 74.5001082,38 Z M74.5001082,53.7532686 C71.0520939,53.7532686 68.2472011,50.9481914 68.2472011,47.5004328 C68.2472011,44.0526741 71.0525267,41.2475969 74.5001082,41.2475969 C77.9479061,41.2475969 80.7530153,44.0526741 80.7530153,47.5004328 C80.7530153,50.9481914 77.9476897,53.7532686 74.5001082,53.7532686 Z" id="Shape"></path>
                <path d="M78.890828,61.0006646 C78.878928,61.0006646 78.867028,61 78.855128,61 L72.2724448,61 C72.2605448,61 72.2486448,61.0006646 72.2367448,61.0006646 C65.6866765,61.0157279 60.3442377,65.1291242 59.3129044,70.3950866 C56.5798711,68.8998297 53.4975508,68.1433405 50.313199,68.1433405 C46.3161213,68.1433405 43.8398195,68.1167582 42.0623121,68.1433405 C38.7486029,68.1433405 35.7017622,68.7452091 32.6864345,70.3950866 C31.6612716,65.1612445 26.349905,61.0157279 19.762594,61.0006646 C19.750694,61.0006646 19.738794,61 19.726894,61 L13.1442108,61 C13.1323108,61 13.1204108,61.0006646 13.1085108,61.0006646 C5.88697396,61.0172785 0,66.0550758 0,72.2653761 L0,91.3009929 C0,93.4794161 1.76296293,95.2513508 3.92986474,95.2513508 L24.9734717,95.2513508 L24.9734717,107.338564 C24.9734717,109.908856 27.0535476,111.999778 29.6107253,111.999778 L42.1420862,111.999778 C43.0550806,111.999778 43.795525,111.255916 43.795525,110.337717 C43.795525,109.41974 43.055301,108.675656 42.1420862,108.675656 L29.6107253,108.675656 C28.8771124,108.675656 28.2803494,108.075781 28.2803494,107.338564 L28.2803494,93.5892897 L28.2803494,82.3910341 C28.2803494,77.6028893 31.9867586,73.8558863 36.53344,72.3072433 L43.721701,82.3885974 C44.2292139,83.1003397 45.0809454,83.5252141 45.9998898,83.5252141 C46.9190546,83.5252141 47.7707861,83.1003397 48.2780787,82.3885974 L55.4661193,72.3072433 C60.0828784,73.8798104 63.7192098,77.679092 63.7192098,82.3908126 L63.7192098,107.338786 C63.7192098,108.076003 63.1224469,108.675878 62.3888339,108.675878 L49.8576934,108.675878 C48.9444786,108.675878 48.2042546,109.41974 48.2042546,110.337939 C48.2042546,111.255916 48.9444786,112 49.8576934,112 L62.3888339,112 C64.9457913,112 67.0260875,109.909077 67.0260875,107.338786 L67.0260875,95.2515724 L88.0696945,95.2515724 C90.2368167,95.2515724 92,93.4794161 92,91.3012144 L92,72.2655976 C91.9993389,66.0765632 86.1377075,61.0172785 78.890828,61.0006646 Z M13.1437701,64.3239007 L19.7264533,64.3239007 C19.8981218,64.3239007 20.0697903,64.3276665 20.2405774,64.3347551 L16.4352219,69.6718253 L12.6298664,64.3347551 C12.8004331,64.3276665 12.9718812,64.3239007 13.1437701,64.3239007 Z M24.973031,82.3914771 L24.973031,91.9278932 L3.92942399,91.9278932 C3.58564622,91.9278932 3.3062166,91.6467849 3.3062166,91.301436 L3.3062166,72.2658191 C3.3062166,69.061096 5.67123137,66.2954245 9.06515537,65.041624 L14.3782849,72.4930981 L14.3782849,72.4933197 C14.8390793,73.1390491 15.6079515,73.5247146 16.4350015,73.5247146 C17.2620515,73.5247146 18.0311441,73.1390491 18.4917181,72.4930981 L23.8048477,65.041624 C27.0440717,66.2382725 29.5637864,68.8227409 29.5637864,72.5783832 C26.4431217,75.3708585 24.973031,78.8958988 24.973031,82.3914771 Z M45.9994491,79.8785595 L40.0620103,71.5514186 C40.6153603,71.5053425 41.2528918,71.4803108 42.0662788,71.4674627 L50.3127582,71.4674627 C50.5668453,71.4674627 50.8204916,71.4745513 51.0732564,71.4860703 C51.1512675,71.4896146 51.2281767,71.4958172 51.3059675,71.5004691 C51.4813823,71.511102 51.6570175,71.5232856 51.8315508,71.5394565 C51.8670304,71.5427793 51.9020693,71.5469882 51.9373286,71.5505325 L45.9994491,79.8785595 Z M72.2722245,64.3239007 L78.8549077,64.3239007 C79.0265762,64.3239007 79.1982447,64.3276665 79.3690317,64.3347551 L75.5636763,69.6718253 L71.7583208,64.3347551 C71.9288874,64.3276665 72.1003356,64.3239007 72.2722245,64.3239007 Z M88.0690334,91.9278932 L67.0254264,91.9278932 L67.0254264,82.3914771 C67.0254264,78.8480506 65.5183135,75.3376305 62.434671,72.5783832 C62.434671,68.8411271 64.9332302,66.2462472 68.1933894,65.041624 L73.5065189,72.4930981 C74.4878281,73.8696206 76.6401855,73.8669623 77.6201725,72.4930981 L82.933302,65.041624 C86.327226,66.2954245 88.6922408,69.061096 88.6922408,72.2658191 L88.6922408,91.301436 L88.6924612,91.301436 C88.6924612,91.6467849 88.4128112,91.9278932 88.0690334,91.9278932 Z" id="Shape"></path>
                <path d="M38.3225653,3.3569069 C42.1334095,3.86105347 43.4346463,6.78907389 43.7618995,7.12415357 C45.2390932,8.63746587 47.1859496,8.52882675 48.4756336,7.07790559 C48.8331016,6.6714906 50.4791428,3.27859075 54.819635,3.27400959 C58.1014977,3.27400959 60.9972328,5.55870322 61.7050594,8.70618338 C61.9036774,9.58882163 62.793015,10.1477241 63.6921281,9.95138831 C64.5907969,9.75657962 65.1588799,8.88288555 64.9604841,8.00046545 C63.0605051,-0.448516161 51.4715663,-3.22099505 46.1037702,4.67999168 C42.5466416,-0.735384501 34.7496628,-1.61845906 30.0383726,3.01375565 C28.0761866,4.94286343 26.9971176,7.50395416 27.0000058,10.2256039 C27.0113363,20.6868088 36.3123911,28.7232671 45.015148,32.756876 C45.70098,33.073631 46.5170023,33.089556 47.2390477,32.7533856 C53.5650535,29.8057316 61.3071568,24.0011743 64.0635927,16.5500146 C64.3779601,15.7003171 63.9311807,14.7616141 63.0658371,14.4529307 C62.2007157,14.1449017 61.2442833,14.5829486 60.9301381,15.432646 C58.5618294,21.8345003 51.7892663,26.939666 46.1226545,29.6488811 C38.4363152,26.0018356 30.3431868,19.0358433 30.3338557,10.2225498 C30.3296345,6.08706453 34.0378372,2.79145995 38.3225653,3.3569069 Z" id="Shape"></path>
            </g>
        </g>
    </g>
</svg>