<?xml version="1.0" encoding="UTF-8"?>
<svg width="92px" height="113px" viewBox="0 0 92 113" version="1.1" xmlns="http://www.w3.org/2000/svg" xmlns:xlink="http://www.w3.org/1999/xlink">
    <!-- Generator: Sketch 51.3 (57544) - http://www.bohemiancoding.com/sketch -->
    <title>question</title>
    <desc>Created with Sketch.</desc>
    <defs></defs>
    <g id="Main-pages" stroke="none" stroke-width="1" fill="none" fill-rule="evenodd">
        <g id="page-8" transform="translate(-474.000000, -214.000000)" fill="#000000" fill-rule="nonzero">
            <g id="question" transform="translate(474.000000, 214.000000)">
                <path d="M82.4481442,0 L9.55207692,0 C4.34589423,0 0.110576923,4.22602933 0.110576923,9.42079496 L0.110576923,53.0284923 C0.110576923,58.2232579 4.34589423,62.4492873 9.55207692,62.4492873 L52.6173654,62.4492873 L59.8395865,111.567748 C59.9594519,112.381796 60.6594038,112.982456 61.4801058,112.982456 C61.4931538,112.982456 61.5059808,112.982456 61.5190288,112.982015 C62.3563173,112.962817 63.0478654,112.32376 63.1312404,111.492059 L68.0463846,62.4492873 L82.4481442,62.4492873 C87.6541058,62.4492873 91.8894231,58.2232579 91.8894231,53.0284923 L91.8894231,9.42079496 C91.8894231,4.22602933 87.6541058,0 82.4481442,0 Z M12.7311635,39.4922231 C12.7311635,39.2373506 12.9390481,39.0299219 13.1944808,39.0299219 L28.7756538,39.0299219 C29.0310865,39.0299219 29.2389712,39.2373506 29.2389712,39.4922231 C29.2389712,39.7470957 29.0313077,39.9545244 28.7756538,39.9545244 L13.1944808,39.9545244 C12.9390481,39.9545244 12.7311635,39.7473163 12.7311635,39.4922231 Z M13.9851058,26.1159389 C14.901125,26.1159389 15.6437596,25.3749328 15.6437596,24.4609224 L15.6437596,16.7180935 C15.6437596,16.333909 15.9571346,16.0212212 16.3421635,16.0212212 C16.7271923,16.0212212 17.0405673,16.333909 17.0405673,16.7180935 L17.0405673,24.4607018 C17.0405673,25.3747122 17.7832019,26.1157182 18.6992212,26.1157182 C19.6152404,26.1157182 20.357875,25.3747122 20.357875,24.4607018 L20.357875,16.7180935 C20.357875,16.333909 20.67125,16.0212212 21.0562788,16.0212212 C21.4413077,16.0212212 21.7546827,16.333909 21.7546827,16.7180935 L21.7546827,24.4607018 C21.7546827,25.3747122 22.4973173,26.1157182 23.4133365,26.1157182 C24.3293558,26.1157182 25.0719904,25.3747122 25.0719904,24.4607018 L25.0719904,16.7180935 C25.0719904,16.3409704 25.3789519,16.0285033 25.7564615,16.0214419 C25.9767308,16.0245313 26.1344135,16.1273629 26.2295096,16.2204852 C26.3816635,16.369216 26.4687981,16.573114 26.4687981,16.7796601 L26.4687981,27.4070724 C26.4687981,28.3210828 27.2114327,29.0620888 28.1274519,29.0620888 C29.0434712,29.0620888 29.7861058,28.3210828 29.7861058,27.4070724 L29.7861058,24.0145093 C29.7861058,23.6303248 30.0994808,23.3176371 30.4845096,23.3176371 C30.8695385,23.3176371 31.1829135,23.6303248 31.1829135,24.0145093 L31.1829135,29.7558717 C31.1829135,32.0605373 30.1432692,34.2513377 28.3705,35.719889 L13.6179904,35.719889 C11.9261635,34.2588405 10.9298654,32.1057744 10.9298654,29.8602481 L10.9298654,16.7180935 C10.9298654,16.333909 11.2432404,16.0212212 11.6282692,16.0212212 C12.0132981,16.0212212 12.3266731,16.333909 12.3266731,16.7180935 L12.3266731,24.4607018 C12.3264519,25.3749328 13.0690865,26.1159389 13.9851058,26.1159389 Z M35.0385096,59.1392544 L30.5953077,59.1392544 L30.5953077,56.5104263 C30.5953077,55.5679496 29.7978269,54.8143654 28.8554904,54.8796834 C28.8413365,54.8805661 28.8274038,54.8816694 28.81325,54.8825521 C27.9503077,54.939264 27.2777788,55.6500384 27.2777788,56.5130743 L27.2777788,59.1110088 L14.6921346,59.1110088 L14.6921346,43.2645573 L27.2777788,43.2645573 L27.2777788,46.2257127 C27.2777788,47.0929413 27.9565,47.8059224 28.8240865,47.8566763 C28.8382404,47.8575589 28.8521731,47.8584416 28.8663269,47.8593243 C29.8046827,47.9178015 30.5950865,47.1662034 30.5950865,46.2281401 L30.5950865,42.7971806 C31.7627788,42.1545929 32.5562788,40.9144339 32.5562788,39.4922231 C32.5562788,38.5839501 32.2327308,37.7498218 31.6948846,37.097966 C32.1290096,36.6098465 32.5175769,36.0861993 32.8574904,35.5329825 C33.1817019,36.0742832 33.5516923,36.5882209 33.9648077,37.0688377 C33.4119231,37.7248862 33.0773173,38.570048 33.0773173,39.4924438 C33.0773173,40.9146546 33.8705962,42.1545929 35.0385096,42.7971806 L35.0385096,59.1392544 Z M37.6485673,26.1159389 C38.5645865,26.1159389 39.3072212,25.3749328 39.3072212,24.4609224 L39.3072212,16.7180935 C39.3072212,16.333909 39.6205962,16.0212212 40.005625,16.0212212 C40.3906538,16.0212212 40.7040288,16.333909 40.7040288,16.7180935 L40.7040288,24.4607018 C40.7040288,25.3747122 41.4466635,26.1157182 42.3626827,26.1157182 C43.2787019,26.1157182 44.0213365,25.3747122 44.0213365,24.4607018 L44.0213365,16.7180935 C44.0213365,16.333909 44.3347115,16.0212212 44.7197404,16.0212212 C45.1047692,16.0212212 45.4181442,16.333909 45.4181442,16.7180935 L45.4181442,24.4607018 C45.4181442,25.3747122 46.1605577,26.1157182 47.0767981,26.1157182 C47.9930385,26.1157182 48.7354519,25.3747122 48.7354519,24.4607018 L48.7354519,16.7180935 C48.7354519,16.3409704 49.0424135,16.0285033 49.4199231,16.0214419 C49.424125,16.0214419 49.4278846,16.0214419 49.4318654,16.0214419 C49.6446154,16.0214419 49.7998654,16.129349 49.8934135,16.2207059 C50.0453462,16.3696573 50.1324808,16.5733347 50.1324808,16.7798808 L50.1324808,27.407293 C50.1324808,28.3213035 50.8748942,29.0623095 51.7911346,29.0623095 C52.707375,29.0623095 53.4497885,28.3213035 53.4497885,27.407293 L53.4497885,24.01473 C53.4497885,23.6305455 53.7629423,23.3178577 54.1479712,23.3178577 C54.533,23.3178577 54.846375,23.6305455 54.846375,24.01473 L54.846375,29.7560924 C54.846375,32.0631853 53.8042981,34.2564131 52.034625,35.7201096 L37.2814519,35.7201096 C35.589625,34.2590611 34.5933269,32.1059951 34.5933269,29.8604687 L34.5933269,16.7180935 C34.5933269,16.333909 34.9067019,16.0212212 35.2917308,16.0212212 C35.6767596,16.0212212 35.9901346,16.333909 35.9901346,16.7180935 L35.9901346,24.4607018 C35.9899135,25.3749328 36.7325481,26.1159389 37.6485673,26.1159389 Z M50.9414615,59.1110088 L38.3558173,59.1110088 L38.3558173,43.2645573 L50.9414615,43.2645573 L50.9414615,59.1110088 Z M52.4391154,39.9545244 L36.8579423,39.9545244 C36.6025096,39.9545244 36.394625,39.7473163 36.394625,39.4922231 C36.394625,39.2371299 36.6025096,39.0299219 36.8579423,39.0299219 L52.4391154,39.0299219 C52.6945481,39.0299219 52.9026538,39.2373506 52.9026538,39.4922231 C52.9026538,39.7470957 52.6945481,39.9545244 52.4391154,39.9545244 Z M61.1689423,97.806176 L55.6914038,60.5541831 C55.5819327,59.8114117 54.9885769,59.2458374 54.2585481,59.1540392 L54.2585481,42.7974013 C55.4264615,42.1548136 56.2197404,40.9146546 56.2197404,39.4924438 C56.2197404,38.5841708 55.8961923,37.7498218 55.358125,37.097966 C55.79225,36.6098465 56.1808173,36.0861993 56.5207308,35.5329825 C56.8449423,36.0742832 57.2149327,36.5882209 57.6280481,37.0688377 C57.0751635,37.7248862 56.7405577,38.570048 56.7405577,39.4924438 C56.7405577,40.9146546 57.5340577,42.1545929 58.70175,42.7974013 L58.70175,60.7662459 C58.70175,61.6802563 59.4441635,62.4212623 60.3604038,62.4212623 L64.7149231,62.4212623 L61.1689423,97.806176 Z M61.2304231,25.4539323 C62.1466635,25.4539323 62.8890769,24.7129263 62.8890769,23.7989158 L62.8890769,17.2296039 C62.9414904,17.0685156 62.9706827,16.8968353 62.9706827,16.7180935 C62.9706827,16.333909 63.2838365,16.0212212 63.6688654,16.0212212 C64.0538942,16.0212212 64.3672692,16.333909 64.3672692,16.7180935 C64.3672692,16.8827124 64.3922596,17.041594 64.4369327,17.1916488 L64.4369327,23.7989158 C64.4369327,24.7129263 65.1793462,25.4539323 66.0955865,25.4539323 C67.0118269,25.4539323 67.7542404,24.7129263 67.7542404,23.7989158 L67.7542404,16.4199698 C67.8665865,16.1851782 68.1052115,16.0212212 68.3829808,16.0212212 C68.7680096,16.0212212 69.0811635,16.333909 69.0811635,16.7180935 L69.0811635,24.4607018 C69.0811635,25.3747122 69.8235769,26.1157182 70.7398173,26.1157182 C71.6560577,26.1157182 72.3984712,25.3747122 72.3984712,24.4607018 L72.3984712,16.7180935 C72.3984712,16.3409704 72.7054327,16.0285033 73.0829423,16.0214419 C73.0871442,16.0214419 73.0909038,16.0214419 73.0948846,16.0214419 C73.3076346,16.0214419 73.4628846,16.129349 73.5564327,16.2207059 C73.7083654,16.3696573 73.7955,16.5733347 73.7955,16.7798808 L73.7955,27.407293 C73.7955,28.3213035 74.5379135,29.0623095 75.4541538,29.0623095 C76.3703942,29.0623095 77.1128077,28.3213035 77.1128077,27.407293 L77.1128077,24.01473 C77.1128077,23.6305455 77.4259615,23.3178577 77.8109904,23.3178577 C78.1960192,23.3178577 78.5093942,23.6305455 78.5093942,24.01473 L78.5093942,29.7560924 C78.5093942,32.0631853 77.4673173,34.2564131 75.6976442,35.7201096 L60.94425,35.7201096 C59.2524231,34.2590611 58.2563462,32.1059951 58.2563462,29.8604687 L58.2563462,16.7180935 C58.2563462,16.333909 58.5697212,16.0212212 58.95475,16.0212212 C59.2236731,16.0212212 59.4547788,16.1752481 59.5715481,16.3981236 L59.5715481,23.7986952 C59.5717692,24.7129263 60.3144038,25.4539323 61.2304231,25.4539323 Z M74.6049231,59.1110088 L62.0195,59.1110088 L62.0195,43.2645573 L74.6049231,43.2645573 L74.6049231,59.1110088 Z M76.1025769,39.9545244 L60.5214038,39.9545244 C60.2659712,39.9545244 60.0580865,39.7473163 60.0580865,39.4922231 C60.0580865,39.2371299 60.26575,39.0299219 60.5214038,39.0299219 L76.1025769,39.0299219 C76.3580096,39.0299219 76.5661154,39.2373506 76.5661154,39.4922231 C76.5661154,39.7470957 76.3580096,39.9545244 76.1025769,39.9545244 Z M88.5721154,53.0284923 C88.5721154,56.3981058 85.8249423,59.1392544 82.4481442,59.1392544 L77.9222308,59.1392544 L77.9222308,42.7971806 C79.0901442,42.1545929 79.8834231,40.9144339 79.8834231,39.4922231 C79.8834231,38.5839501 79.559875,37.7496012 79.0218077,37.0977453 C80.8045288,35.0936308 81.8269231,32.4817941 81.8269231,29.7558717 L81.8269231,24.0145093 C81.8269231,21.8051727 80.0254038,20.0076042 77.8112115,20.0076042 C77.5730288,20.0076042 77.3397115,20.028347 77.1130288,20.0682881 L77.1130288,16.7798808 C77.1130288,15.6904386 76.6636442,14.6254907 75.8800962,13.8582251 C75.1049519,13.0991242 74.0971538,12.6884594 73.0210192,12.712071 C72.1737788,12.7279592 71.3877981,13.0108566 70.7446827,13.479116 C70.0814423,12.9965132 69.2651635,12.711409 68.3832019,12.711409 C67.5032308,12.711409 66.6885,12.9951891 66.0261442,13.4760266 C65.3637885,12.9951891 64.5488365,12.711409 63.6690865,12.711409 C62.7893365,12.711409 61.9746058,12.9951891 61.31225,13.4760266 C60.6498942,12.9951891 59.8349423,12.711409 58.9551923,12.711409 C56.7407788,12.711409 54.9394808,14.5089775 54.9394808,16.7183141 L54.9394808,20.0868243 C54.6833846,20.0356291 54.4188846,20.0078248 54.1479712,20.0078248 C53.9097885,20.0078248 53.6764712,20.0285677 53.4497885,20.0685088 L53.4497885,16.7798808 C53.4497885,15.6904386 53.0004038,14.6254907 52.2168558,13.8582251 C51.4417115,13.0991242 50.4336923,12.6884594 49.3577788,12.712071 C48.5105385,12.7279592 47.7245577,13.0108566 47.0814423,13.479116 C46.4182019,12.9962925 45.6019231,12.711409 44.7199615,12.711409 C43.8399904,12.711409 43.0252596,12.9951891 42.3629038,13.4760266 C41.7003269,12.9951891 40.8858173,12.711409 40.0058462,12.711409 C39.125875,12.711409 38.3111442,12.9951891 37.6487885,13.4760266 C36.9864327,12.9951891 36.1717019,12.711409 35.2917308,12.711409 C33.0773173,12.711409 31.2760192,14.5089775 31.2760192,16.7183141 L31.2760192,20.0868243 C31.0199231,20.0356291 30.7554231,20.0078248 30.4845096,20.0078248 C30.2463269,20.0078248 30.0130096,20.0285677 29.7861058,20.0685088 L29.7861058,16.7798808 C29.7861058,15.6904386 29.3367212,14.6254907 28.5531731,13.8582251 C27.7780288,13.0993448 26.7600577,12.6875768 25.6945385,12.7122917 C24.8470769,12.7281798 24.0613173,13.011298 23.4182019,13.4795573 C22.7549615,12.9967338 21.9386827,12.7116297 21.0565,12.7116297 C20.1765288,12.7116297 19.3617981,12.9954098 18.6994423,13.4762473 C18.0368654,12.9954098 17.2223558,12.7116297 16.3423846,12.7116297 C15.4624135,12.7116297 14.6476827,12.9954098 13.9853269,13.4762473 C13.3229712,12.9954098 12.5082404,12.7116297 11.6282692,12.7116297 C9.41385577,12.7116297 7.61255769,14.5091982 7.61255769,16.7185348 L7.61255769,29.8606894 C7.61255769,32.5175425 8.59226923,35.0810526 10.3017885,37.0692791 C9.74890385,37.7253276 9.41429808,38.5704893 9.41429808,39.4928851 C9.41429808,40.9150959 10.2075769,42.1550343 11.3754904,42.797622 L11.3754904,59.1392544 L9.55251923,59.1392544 C6.1755,59.1392544 3.42832692,56.3981058 3.42832692,53.0284923 L3.42832692,9.42079496 C3.42788462,6.05118147 6.17505769,3.31003289 9.55207692,3.31003289 L82.4481442,3.31003289 C85.8251635,3.31003289 88.5721154,6.05118147 88.5721154,9.42079496 L88.5721154,53.0284923 Z" id="Shape"></path>
            </g>
        </g>
    </g>
</svg>