<?xml version="1.0" encoding="UTF-8"?>
<svg width="30px" height="32px" viewBox="0 0 30 32" version="1.1" xmlns="http://www.w3.org/2000/svg" xmlns:xlink="http://www.w3.org/1999/xlink">
    <!-- Generator: Sketch 51.3 (57544) - http://www.bohemiancoding.com/sketch -->
    <title>icons/hamburger/hamburger-icon_main</title>
    <desc>Created with Sketch.</desc>
    <defs>
        <path d="M24,14.45 L24,16.15 C24,16.6148438 23.546875,17 23,17 L1,17 C0.453125,17 0,16.6148438 0,16.15 L0,14.45 C0,13.9851563 0.453125,13.6 1,13.6 L23,13.6 C23.546875,13.6 24,13.9851563 24,14.45 Z M24,7.65 L24,9.35 C24,9.81484375 23.546875,10.2 23,10.2 L1,10.2 C0.453125,10.2 0,9.81484375 0,9.35 L0,7.65 C0,7.18515625 0.453125,6.8 1,6.8 L23,6.8 C23.546875,6.8 24,7.18515625 24,7.65 Z M24,0.85 L24,2.55 C24,3.01484375 23.546875,3.4 23,3.4 L1,3.4 C0.453125,3.4 0,3.01484375 0,2.55 L0,0.85 C0,0.38515625 0.453125,0 1,0 L23,0 C23.546875,0 24,0.38515625 24,0.85 Z" id="path-1"></path>
    </defs>
    <g id="Main-pages" stroke="none" stroke-width="1" fill="none" fill-rule="evenodd">
        <g id="01-home" transform="translate(-50.000000, -48.000000)">
            <g id="side-nav/closed" transform="translate(36.000000, 36.000000)">
                <g id="icons/hamburger/hamburger-icon_main" transform="translate(14.000000, 12.098472)">
                    <g transform="translate(3.000000, 0.000000)" id="colors/primary/blue">
                        <g>
                            <mask id="mask-2" fill="white">
                                <use xlink:href="#path-1"></use>
                            </mask>
                            <use id="Mask" fill="#2CA8E2" xlink:href="#path-1"></use>
                            <g id="colors/primary/gray" mask="url(#mask-2)" fill="#2E4250">
                                <rect id="Rectangle-Copy-4" x="0" y="0" width="24" height="17"></rect>
                            </g>
                        </g>
                    </g>
                    <text id="menu" font-family="AvenirNextLTPro-Demi, Avenir Next LT Pro" font-size="11" font-weight="500" letter-spacing="0.3666666" fill="#2E4250">
                        <tspan x="0" y="29.9252971">menu</tspan>
                    </text>
                </g>
            </g>
        </g>
    </g>
</svg>